<svg width="26" height="26" viewBox="0 0 26 26" fill="none" xmlns="http://www.w3.org/2000/svg">
<g filter="url(#filter0_d_1225_43323)">
<mask id="mask0_1225_43323" style="mask-type:alpha" maskUnits="userSpaceOnUse" x="0" y="0" width="24" height="24">
<circle cx="12" cy="12" r="12" fill="#D9D9D9"/>
</mask>
<g mask="url(#mask0_1225_43323)">
<path fill-rule="evenodd" clip-rule="evenodd" d="M-4 0H28V24H-4V0Z" fill="#F7FCFF"/>
<path fill-rule="evenodd" clip-rule="evenodd" d="M-4 0V8H28V0H-4Z" fill="#E31D1C"/>
<path fill-rule="evenodd" clip-rule="evenodd" d="M-4 16V24H28V16H-4Z" fill="#3D58DB"/>
<mask id="path-5-outside-1_1225_43323" maskUnits="userSpaceOnUse" x="-6" y="-7" width="36" height="38" fill="black">
<rect fill="white" x="-6" y="-7" width="36" height="38"/>
<path fill-rule="evenodd" clip-rule="evenodd" d="M11.4286 10L-4 -2V26L11.4286 14H28V10H11.4286Z"/>
</mask>
<path fill-rule="evenodd" clip-rule="evenodd" d="M11.4286 10L-4 -2V26L11.4286 14H28V10H11.4286Z" fill="#5EAA22"/>
<path d="M-4 -2L-2.77212 -3.5787L-6 -6.08928V-2H-4ZM11.4286 10L10.2007 11.5787L10.7424 12H11.4286V10ZM-4 26H-6V30.0893L-2.77212 27.5787L-4 26ZM11.4286 14V12H10.7424L10.2007 12.4213L11.4286 14ZM28 14V16H30V14H28ZM28 10H30V8H28V10ZM-4 -2L-5.22788 -0.421296L10.2007 11.5787L11.4286 10L12.6565 8.4213L-2.77212 -3.5787L-4 -2ZM-4 26H-2V-2H-4H-6V26H-4ZM11.4286 14L10.2007 12.4213L-5.22788 24.4213L-4 26L-2.77212 27.5787L12.6565 15.5787L11.4286 14ZM28 14V12H11.4286V14V16H28V14ZM28 10H26V14H28H30V10H28ZM11.4286 10V12H28V10V8H11.4286V10Z" fill="#F7FCFF" mask="url(#path-5-outside-1_1225_43323)"/>
<path d="M-3.40039 5.2002L4.59961 11.2002L5.66699 12L4.59961 12.7998L-3.40039 18.7998L-5 20V4L-3.40039 5.2002Z" fill="#272727" stroke="#FECA00" stroke-width="2"/>
</g>
</g>
<defs>
<filter id="filter0_d_1225_43323" x="0" y="0" width="26" height="26" filterUnits="userSpaceOnUse" color-interpolation-filters="sRGB">
<feFlood flood-opacity="0" result="BackgroundImageFix"/>
<feColorMatrix in="SourceAlpha" type="matrix" values="0 0 0 0 0 0 0 0 0 0 0 0 0 0 0 0 0 0 127 0" result="hardAlpha"/>
<feOffset dx="1" dy="1"/>
<feGaussianBlur stdDeviation="0.5"/>
<feComposite in2="hardAlpha" operator="out"/>
<feColorMatrix type="matrix" values="0 0 0 0 0 0 0 0 0 0 0 0 0 0 0 0 0 0 0.4 0"/>
<feBlend mode="normal" in2="BackgroundImageFix" result="effect1_dropShadow_1225_43323"/>
<feBlend mode="normal" in="SourceGraphic" in2="effect1_dropShadow_1225_43323" result="shape"/>
</filter>
</defs>
</svg>
