<svg width="26" height="26" viewBox="0 0 26 26" fill="none" xmlns="http://www.w3.org/2000/svg">
<g filter="url(#filter0_d_1225_43465)">
<mask id="mask0_1225_43465" style="mask-type:alpha" maskUnits="userSpaceOnUse" x="0" y="0" width="24" height="24">
<circle cx="12" cy="12" r="12" fill="#D9D9D9"/>
</mask>
<g mask="url(#mask0_1225_43465)">
<path fill-rule="evenodd" clip-rule="evenodd" d="M-4 0V24H28V0H-4Z" fill="#EA1A1A"/>
<mask id="mask1_1225_43465" style="mask-type:luminance" maskUnits="userSpaceOnUse" x="-4" y="0" width="32" height="24">
<path fill-rule="evenodd" clip-rule="evenodd" d="M-4 0V24H28V0H-4Z" fill="white"/>
</mask>
<g mask="url(#mask1_1225_43465)">
<path d="M14.239 11.8271C14.2979 11.8449 21.6503 14.0751 16.6863 19.7041C16.6713 19.6978 13.9284 18.5388 14.239 15.6543C14.5506 12.7623 15.1283 12.1386 14.239 11.8271ZM12.2849 13.5615C12.2849 13.5615 13.6171 21.2038 6.33371 19.2725C6.33108 19.2306 6.15528 16.2808 8.86203 15.2734C11.5887 14.2587 12.4043 14.4967 12.2849 13.5615ZM3.32493 7.86816C3.32493 7.86816 6.20658 7.06155 7.75852 9.52246C9.31029 11.9831 9.24383 12.8309 10.1345 12.5225C10.1129 12.531 2.92822 15.3811 3.32493 7.86816ZM13.2741 11.1191C13.2741 11.1191 16.9237 4.27324 21.4792 10.2754C21.4792 10.2754 19.7999 12.7515 17.0261 11.875C14.252 10.9983 13.7553 10.3082 13.2741 11.1191ZM12.989 3.40332C12.989 3.40332 14.9982 5.61993 13.4909 8.1084C11.9833 10.5967 11.1954 10.9162 11.8698 11.5752C11.8698 11.5752 6.08029 6.4117 12.989 3.40332Z" fill="white"/>
<path d="M5.9502 10.3424L6.37221 10.0742C7.29855 11.5321 8.50081 12.2495 10.0011 12.2495V12.7495C8.32261 12.7495 6.96493 11.9394 5.9502 10.3424Z" fill="#EA1A1A"/>
<path fill-rule="evenodd" clip-rule="evenodd" d="M17.75 10.75C18.1642 10.75 18.5 10.4142 18.5 10C18.5 9.58579 18.1642 9.25 17.75 9.25C17.3358 9.25 17 9.58579 17 10C17 10.4142 17.3358 10.75 17.75 10.75Z" fill="#EA1A1A"/>
<path fill-rule="evenodd" clip-rule="evenodd" d="M15.9585 15.728C16.3727 15.728 16.7085 15.3922 16.7085 14.978C16.7085 14.5638 16.3727 14.228 15.9585 14.228C15.5443 14.228 15.2085 14.5638 15.2085 14.978C15.2085 15.3922 15.5443 15.728 15.9585 15.728Z" fill="#EA1A1A"/>
<path fill-rule="evenodd" clip-rule="evenodd" d="M9.9585 17.728C10.3727 17.728 10.7085 17.3922 10.7085 16.978C10.7085 16.5638 10.3727 16.228 9.9585 16.228C9.54428 16.228 9.2085 16.5638 9.2085 16.978C9.2085 17.3922 9.54428 17.728 9.9585 17.728Z" fill="#EA1A1A"/>
<path fill-rule="evenodd" clip-rule="evenodd" d="M5.9585 10.728C6.37271 10.728 6.7085 10.3922 6.7085 9.97803C6.7085 9.56381 6.37271 9.22803 5.9585 9.22803C5.54428 9.22803 5.2085 9.56381 5.2085 9.97803C5.2085 10.3922 5.54428 10.728 5.9585 10.728Z" fill="#EA1A1A"/>
<path fill-rule="evenodd" clip-rule="evenodd" d="M11.9585 7.72803C12.3727 7.72803 12.7085 7.39224 12.7085 6.97803C12.7085 6.56381 12.3727 6.22803 11.9585 6.22803C11.5443 6.22803 11.2085 6.56381 11.2085 6.97803C11.2085 7.39224 11.5443 7.72803 11.9585 7.72803Z" fill="#EA1A1A"/>
<path d="M11.6345 7.05255L12.0741 7.29082C11.2415 8.82681 11.1827 10.2435 11.8878 11.5696L11.4463 11.8043C10.659 10.3236 10.7251 8.73021 11.6345 7.05255Z" fill="#EA1A1A"/>
<path d="M18.0148 9.68604L17.9399 10.1804C15.9841 9.8839 14.5201 10.2965 13.5177 11.4098L13.1461 11.0753C14.2707 9.82626 15.9037 9.366 18.0148 9.68604Z" fill="#EA1A1A"/>
<path d="M16.3511 15.3651L15.8609 15.4637C15.4706 13.5245 14.5822 12.2899 13.1932 11.7287L13.3805 11.2651C14.9388 11.8947 15.9298 13.2718 16.3511 15.3651Z" fill="#EA1A1A"/>
<path d="M9.90627 17.1502L9.64592 16.7234C11.3347 15.6933 12.191 14.4362 12.2433 12.939L12.743 12.9565C12.6843 14.6361 11.7292 16.0384 9.90627 17.1502Z" fill="#EA1A1A"/>
</g>
</g>
</g>
<defs>
<filter id="filter0_d_1225_43465" x="0" y="0" width="26" height="26" filterUnits="userSpaceOnUse" color-interpolation-filters="sRGB">
<feFlood flood-opacity="0" result="BackgroundImageFix"/>
<feColorMatrix in="SourceAlpha" type="matrix" values="0 0 0 0 0 0 0 0 0 0 0 0 0 0 0 0 0 0 127 0" result="hardAlpha"/>
<feOffset dx="1" dy="1"/>
<feGaussianBlur stdDeviation="0.5"/>
<feComposite in2="hardAlpha" operator="out"/>
<feColorMatrix type="matrix" values="0 0 0 0 0 0 0 0 0 0 0 0 0 0 0 0 0 0 0.4 0"/>
<feBlend mode="normal" in2="BackgroundImageFix" result="effect1_dropShadow_1225_43465"/>
<feBlend mode="normal" in="SourceGraphic" in2="effect1_dropShadow_1225_43465" result="shape"/>
</filter>
</defs>
</svg>
