<svg width="26" height="26" viewBox="0 0 26 26" fill="none" xmlns="http://www.w3.org/2000/svg">
<g filter="url(#filter0_d_1225_43563)">
<mask id="mask0_1225_43563" style="mask-type:alpha" maskUnits="userSpaceOnUse" x="0" y="0" width="24" height="24">
<circle cx="12" cy="12" r="12" fill="#D9D9D9"/>
</mask>
<g mask="url(#mask0_1225_43563)">
<path d="M-4 0H28V24H-4V0Z" fill="#003FAB"/>
<path d="M7.93387 18.8911L8.13056 18.0059L7.35057 17.5447L8.25265 17.4599L8.44934 16.5748L8.80882 17.4057L9.71089 17.3209L9.03264 17.9178L9.39212 18.7486L8.61212 18.2908L7.93387 18.8911Z" fill="#FFC400"/>
<path d="M5.03434 15.9339L5.64476 15.2658L5.20051 14.479L6.02459 14.8554L6.63841 14.1874L6.53328 15.0861L7.35736 15.4625L6.46884 15.6422L6.3671 16.5443L5.92285 15.7541L5.03434 15.9339Z" fill="#FFC400"/>
<path d="M4 11.9254L4.86477 11.6507L4.87156 10.7452L5.3972 11.4845L6.26198 11.2132L5.72276 11.939L6.24841 12.6783L5.39042 12.39L4.85121 13.1191L4.85799 12.2136L4 11.9254Z" fill="#FFC400"/>
<path d="M5.10894 7.93387L5.99407 8.13056L6.45528 7.35057L6.54006 8.25265L7.42518 8.44934L6.59432 8.80882L6.6791 9.71089L6.07885 9.03264L5.24799 9.39212L5.7092 8.61212L5.10894 7.93387Z" fill="#FFC400"/>
<path d="M8.06613 5.03434L8.73421 5.64476L9.52098 5.20051L9.14455 6.02459L9.81263 6.63841L8.91395 6.53328L8.53752 7.35735L8.35778 6.46884L7.4557 6.36711L8.24587 5.92285L8.06613 5.03434Z" fill="#FFC400"/>
<path d="M12.0746 4L12.3493 4.86477L13.2548 4.87156L12.5155 5.3972L12.7868 6.26198L12.061 5.72276L11.3217 6.24841L11.61 5.39042L10.8809 4.85121L11.7863 4.85799L12.0746 4Z" fill="#FFC400"/>
<path d="M16.0661 5.10894L15.8694 5.99407L16.6494 6.45528L15.7474 6.54006L15.5507 7.42518L15.1912 6.59432L14.2891 6.6791L14.9674 6.07885L14.6079 5.24799L15.3879 5.7092L16.0661 5.10894Z" fill="#FFC400"/>
<path d="M18.9657 8.06613L18.3552 8.73421L18.7995 9.52098L17.9754 9.14455L17.3616 9.81263L17.4667 8.91395L16.6426 8.53752L17.5312 8.35778L17.6329 7.4557L18.0772 8.24587L18.9657 8.06613Z" fill="#FFC400"/>
<path d="M20 12.0746L19.1352 12.3493L19.1284 13.2548L18.6028 12.5155L17.738 12.7868L18.2772 12.061L17.7516 11.3217L18.6096 11.61L19.1488 10.8809L19.142 11.7863L20 12.0746Z" fill="#FFC400"/>
<path d="M18.8911 16.0661L18.0059 15.8694L17.5447 16.6494L17.4599 15.7473L16.5748 15.5507L17.4057 15.1912L17.3209 14.2891L17.9212 14.9674L18.752 14.6079L18.2908 15.3879L18.8911 16.0661Z" fill="#FFC400"/>
<path d="M15.9339 18.9657L15.2658 18.3552L14.479 18.7995L14.8554 17.9754L14.1874 17.3616L15.0861 17.4667L15.4625 16.6426L15.6422 17.5312L16.5443 17.6329L15.7541 18.0772L15.9339 18.9657Z" fill="#FFC400"/>
<path d="M11.9254 20L11.6507 19.1352L10.7452 19.1284L11.4845 18.6028L11.2132 17.738L11.939 18.2772L12.6783 17.7516L12.39 18.6096L13.1191 19.1488L12.2103 19.142L11.9254 20Z" fill="#FFC400"/>
</g>
</g>
<defs>
<filter id="filter0_d_1225_43563" x="0" y="0" width="26" height="26" filterUnits="userSpaceOnUse" color-interpolation-filters="sRGB">
<feFlood flood-opacity="0" result="BackgroundImageFix"/>
<feColorMatrix in="SourceAlpha" type="matrix" values="0 0 0 0 0 0 0 0 0 0 0 0 0 0 0 0 0 0 127 0" result="hardAlpha"/>
<feOffset dx="1" dy="1"/>
<feGaussianBlur stdDeviation="0.5"/>
<feComposite in2="hardAlpha" operator="out"/>
<feColorMatrix type="matrix" values="0 0 0 0 0 0 0 0 0 0 0 0 0 0 0 0 0 0 0.4 0"/>
<feBlend mode="normal" in2="BackgroundImageFix" result="effect1_dropShadow_1225_43563"/>
<feBlend mode="normal" in="SourceGraphic" in2="effect1_dropShadow_1225_43563" result="shape"/>
</filter>
</defs>
</svg>
