<svg width="26" height="26" viewBox="0 0 26 26" fill="none" xmlns="http://www.w3.org/2000/svg">
<g filter="url(#filter0_d_1225_43529)">
<mask id="mask0_1225_43529" style="mask-type:alpha" maskUnits="userSpaceOnUse" x="0" y="0" width="24" height="24">
<circle cx="12" cy="12" r="12" fill="#D9D9D9"/>
</mask>
<g mask="url(#mask0_1225_43529)">
<path fill-rule="evenodd" clip-rule="evenodd" d="M18 0H28V24H18V0Z" fill="#D9071E"/>
<path fill-rule="evenodd" clip-rule="evenodd" d="M-4 0H8V24H-4V0Z" fill="#006923"/>
<path fill-rule="evenodd" clip-rule="evenodd" d="M6 0H18V24H6V0Z" fill="white"/>
<path d="M10.0161 7.94678C9.92433 8.09964 9.85065 8.23276 9.79639 8.34229C9.97612 8.39538 10.1005 8.64926 10.2368 8.7749C10.6011 9.11057 10.5557 9.48509 10.0552 9.89111C9.95869 9.96979 10.1819 10.1769 10.0952 10.4341C10.3339 10.4474 10.5043 10.4837 10.6616 10.5767C11.1036 10.8381 11.0627 11.3149 10.7261 11.6831C10.4875 11.944 10.1687 12.1557 9.86865 12.2642C9.36944 12.4445 8.83545 12.3749 8.83545 11.7358C8.83534 11.7108 8.8193 11.6611 9.05518 11.6558C8.67499 11.6498 8.51873 10.6055 8.51318 10.4868C8.51316 9.69231 8.17725 9.69189 8.17725 9.69189V9.26514H8.75732C9.08631 9.26514 8.99493 9.66143 9.09912 9.89111C9.12431 9.84913 9.16556 11.2045 9.30127 11.0903C9.35312 11.05 9.73664 11.5335 9.79639 11.3218C9.84107 11.162 9.58114 10.5326 9.58154 10.2651C9.58249 9.64403 9.77717 9.29085 9.79639 9.26514C9.71295 9.23555 9.58886 8.90645 9.53271 8.90479C9.01898 8.90479 8.94901 8.79713 9.05518 8.34229C9.11198 8.09904 8.91796 7.83307 9.15869 7.43213L10.0161 7.94678ZM9.97217 11.0249L9.98291 11.0151C9.98448 11.0124 9.98615 11.0101 9.98779 11.0083C9.98272 11.0138 9.9774 11.0194 9.97217 11.0249Z" fill="#A8AC71"/>
<path fill-rule="evenodd" clip-rule="evenodd" d="M10.3843 7.91357C10.3843 7.91357 9.69746 8.44623 9.8259 9.01411C9.95434 9.58199 11.3078 9.01411 11.1442 8.46384C10.9806 7.91357 10.3843 7.91357 10.3843 7.91357Z" fill="#FCCA3D"/>
<path fill-rule="evenodd" clip-rule="evenodd" d="M15.2666 12.403C15.2666 12.403 16.1916 9.66167 14.7212 8.24263C13.2508 6.8236 11.5517 6.91855 11.5517 6.91855C11.5517 6.91855 11.0624 7.2821 11.5517 7.55935C12.041 7.83661 11.836 8.10245 11.836 8.10245C11.836 8.10245 11.0166 7.27041 10.4726 7.75652C9.9286 8.24263 10.9804 8.16865 10.869 8.53467C10.7577 8.90069 10.286 10.5257 10.9753 11.3462C11.6645 12.1666 10.3236 11.9886 10.5963 11.9886C10.869 11.9886 11.836 12.1796 11.836 11.9886C11.836 11.7976 12.1722 12.7311 12.4599 12.7311C12.7475 12.7311 12.9696 12.403 12.9696 12.403C12.9696 12.403 13.3729 12.7311 13.6186 12.7311C13.8643 12.7311 14.7212 12.5164 14.7212 12.5164L13.1017 11.1519C13.1017 11.1519 13.1993 10.55 12.9696 10.4197C12.7399 10.2895 14.8114 11.5742 14.9736 11.9886C15.1358 12.403 15.2666 12.403 15.2666 12.403Z" fill="#8F4620"/>
<path d="M7.06641 11.7266C7.06641 11.7266 7.21655 11.248 7.37731 11.2148C7.51658 11.186 7.80944 11.4441 7.80944 11.4441C8.32968 14.334 9.58761 15.4627 11.6749 15.4627C13.7867 15.4627 15.0666 14.605 15.8135 11.9398C15.8135 11.9398 16.2106 11.5343 16.3507 11.5794C16.5032 11.6284 16.6943 12.1649 16.6943 12.1649C15.8375 15.2225 14.2185 16.5839 11.6749 16.5839C9.10667 16.5839 7.66375 15.0448 7.06641 11.7266Z" fill="#9FAB2F"/>
<path fill-rule="evenodd" clip-rule="evenodd" d="M9.33415 13.6567C9.33415 13.6567 12.3385 14.2941 13.5243 14.2941C14.7102 14.2941 12.4839 15.2619 11.6152 15.2619C11.2352 15.2619 10.7772 15.0315 10.2412 14.5708C10.1451 14.4883 10.2382 14.3035 9.94549 14.301C9.5374 14.2974 9.03041 14.2017 9.07892 14.1434C9.12504 14.0879 9.7188 14.0711 9.66158 14.0105C9.56716 13.9104 9.33415 13.6567 9.33415 13.6567Z" fill="#2FC2DC"/>
<rect x="10.6665" y="14.1001" width="2" height="1.07143" rx="0.166667" fill="#F9AA51"/>
<path d="M8.17529 12.1358C8.17529 12.1358 8.17529 11.7607 8.42928 11.5615C8.72042 11.3331 8.99392 11.5615 8.99392 11.5615C10.0594 13.0801 11.6527 13.5797 13.8811 13.0583C13.8811 13.0583 14.5474 13.276 14.5808 13.419C14.6233 13.6006 14.1089 14.032 14.1089 14.032C11.5039 14.6415 9.49028 14.0101 8.17529 12.1358Z" fill="#259485"/>
<path fill-rule="evenodd" clip-rule="evenodd" d="M12.5914 12.3506C12.5914 12.3506 11.3777 12.9895 11.7823 12.9895C12.1868 12.9895 13.7701 13.3089 13.4621 12.9895C13.154 12.67 12.5914 12.3506 12.5914 12.3506Z" fill="#FCCA3D"/>
<path fill-rule="evenodd" clip-rule="evenodd" d="M11.1565 11.5884C11.1565 11.5884 10.9259 10.9224 10.446 10.9224C9.96615 10.9224 10.1016 11.4687 9.87083 11.4687C9.64006 11.4687 10.0859 11.8532 10.2846 11.8532C10.4833 11.8532 11.1565 11.5884 11.1565 11.5884Z" fill="#FCCA3D"/>
</g>
</g>
<defs>
<filter id="filter0_d_1225_43529" x="0" y="0" width="26" height="26" filterUnits="userSpaceOnUse" color-interpolation-filters="sRGB">
<feFlood flood-opacity="0" result="BackgroundImageFix"/>
<feColorMatrix in="SourceAlpha" type="matrix" values="0 0 0 0 0 0 0 0 0 0 0 0 0 0 0 0 0 0 127 0" result="hardAlpha"/>
<feOffset dx="1" dy="1"/>
<feGaussianBlur stdDeviation="0.5"/>
<feComposite in2="hardAlpha" operator="out"/>
<feColorMatrix type="matrix" values="0 0 0 0 0 0 0 0 0 0 0 0 0 0 0 0 0 0 0.4 0"/>
<feBlend mode="normal" in2="BackgroundImageFix" result="effect1_dropShadow_1225_43529"/>
<feBlend mode="normal" in="SourceGraphic" in2="effect1_dropShadow_1225_43529" result="shape"/>
</filter>
</defs>
</svg>
