<svg width="26" height="26" viewBox="0 0 26 26" fill="none" xmlns="http://www.w3.org/2000/svg">
<g filter="url(#filter0_d_1225_42653)">
<mask id="mask0_1225_42653" style="mask-type:alpha" maskUnits="userSpaceOnUse" x="0" y="0" width="24" height="24">
<ellipse cx="12" cy="12" rx="12" ry="12" fill="#D9D9D9"/>
</mask>
<g mask="url(#mask0_1225_42653)">
<path fill-rule="evenodd" clip-rule="evenodd" d="M-3.50024 0.5V24.5H28.4998V0.5H-3.50024Z" fill="#2E42A5"/>
<path d="M-5.00441 13.9998L-1.04346 15.737L15.0897 2.88872L17.179 0.307186L12.9434 -0.273438L6.36304 5.26325L1.06653 8.99369L-5.00441 13.9998Z" fill="#F7FCFF"/>
<path d="M-4.46215 15.2169L-2.44423 16.225L16.4288 0.0673332H13.5954L-4.46215 15.2169Z" fill="#F50100"/>
<path d="M17.0041 13.9998L13.0432 15.737L-3.09002 2.88872L-5.17933 0.307186L-0.943666 -0.273438L5.63668 5.26325L10.9332 8.99369L17.0041 13.9998Z" fill="#F7FCFF"/>
<path d="M16.2773 14.3186L15.0906 14.839L14.1536 15.25L6.81472 8.96349L4.43212 8.19056L-5.38037 0.316027H-2.54698L7.26001 8.00365L9.86496 8.93047L16.2773 14.3186Z" fill="#F50100"/>
<path fill-rule="evenodd" clip-rule="evenodd" d="M6.98437 0.999975H4.98437V6.99998H-3.00014V8.99998H4.98437V15H6.98437V8.99998H14.9999V6.99998H6.98437V0.999975Z" fill="#F50100"/>
<path fill-rule="evenodd" clip-rule="evenodd" d="M3.48437 0.999975H8.48437V5.49998H14.9999V10.5H8.48437L8.49986 15H3.49986L3.48437 10.5H-3.00014V5.49998H3.48437V0.999975ZM4.98437 6.99998H-3.00014V8.99998H4.98437V15H6.98437V8.99998H14.9999V6.99998H6.98437V0.999975H4.98437V6.99998Z" fill="#F7FCFF"/>
<path d="M5.99986 21.5L4.69821 22.7029L4.82711 20.9352L3.07507 20.6675L4.53747 19.6662L3.65436 18.1295L5.34903 18.6485L5.99986 17L6.65068 18.6485L8.34535 18.1295L7.46225 19.6662L8.92464 20.6675L7.1726 20.9352L7.30151 22.7029L5.99986 21.5Z" fill="#F7FCFF"/>
<path d="M18.9999 14L18.1321 14.8019L18.218 13.6235L17.05 13.445L18.0249 12.7775L17.4362 11.753L18.566 12.099L18.9999 11L19.4337 12.099L20.5635 11.753L19.9748 12.7775L20.9497 13.445L19.7817 13.6235L19.8676 14.8019L18.9999 14Z" fill="#F7FCFF"/>
<path d="M20.9999 5.99998L20.1321 6.80191L20.218 5.62347L19.05 5.44502L20.0249 4.77745L19.4362 3.753L20.566 4.09901L20.9999 2.99998L21.4337 4.09901L22.5635 3.753L21.9748 4.77745L22.9497 5.44502L21.7817 5.62347L21.8676 6.80191L20.9999 5.99998Z" fill="#F7FCFF"/>
<path d="M25.9999 9.99998L25.1321 10.8019L25.218 9.62346L24.05 9.44502L25.0249 8.77745L24.4362 7.753L25.566 8.09901L25.9999 6.99998L26.4337 8.09901L27.5635 7.753L26.9748 8.77745L27.9497 9.44502L26.7817 9.62346L26.8676 10.8019L25.9999 9.99998Z" fill="#F7FCFF"/>
<path d="M21.9999 23L21.1321 23.8019L21.218 22.6235L20.05 22.445L21.0249 21.7775L20.4362 20.753L21.566 21.099L21.9999 20L22.4337 21.099L23.5635 20.753L22.9748 21.7775L23.9497 22.445L22.7817 22.6235L22.8676 23.8019L21.9999 23Z" fill="#F7FCFF"/>
<path d="M25.4999 15.25L24.6182 15.7135L24.7866 14.7317L24.0733 14.0364L25.059 13.8932L25.4999 13L25.9407 13.8932L26.9264 14.0364L26.2132 14.7317L26.3815 15.7135L25.4999 15.25Z" fill="#F7FCFF"/>
</g>
</g>
<defs>
<filter id="filter0_d_1225_42653" x="0" y="0" width="26" height="26" filterUnits="userSpaceOnUse" color-interpolation-filters="sRGB">
<feFlood flood-opacity="0" result="BackgroundImageFix"/>
<feColorMatrix in="SourceAlpha" type="matrix" values="0 0 0 0 0 0 0 0 0 0 0 0 0 0 0 0 0 0 127 0" result="hardAlpha"/>
<feOffset dx="1" dy="1"/>
<feGaussianBlur stdDeviation="0.5"/>
<feComposite in2="hardAlpha" operator="out"/>
<feColorMatrix type="matrix" values="0 0 0 0 0 0 0 0 0 0 0 0 0 0 0 0 0 0 0.4 0"/>
<feBlend mode="normal" in2="BackgroundImageFix" result="effect1_dropShadow_1225_42653"/>
<feBlend mode="normal" in="SourceGraphic" in2="effect1_dropShadow_1225_42653" result="shape"/>
</filter>
</defs>
</svg>
