<svg width="26" height="26" viewBox="0 0 26 26" fill="none" xmlns="http://www.w3.org/2000/svg">
<g filter="url(#filter0_d_1225_42826)">
<mask id="mask0_1225_42826" style="mask-type:alpha" maskUnits="userSpaceOnUse" x="0" y="0" width="24" height="24">
<circle cx="12" cy="12" r="12" fill="#D9D9D9"/>
</mask>
<g mask="url(#mask0_1225_42826)">
<path fill-rule="evenodd" clip-rule="evenodd" d="M-4 0H28V24H-4V0Z" fill="#F7FCFF"/>
<path fill-rule="evenodd" clip-rule="evenodd" d="M-4 14.6667V16.6667H28V14.6667H-4Z" fill="#E31D1C"/>
<path fill-rule="evenodd" clip-rule="evenodd" d="M-4 18.3333V20.3333H28V18.3333H-4Z" fill="#E31D1C"/>
<path fill-rule="evenodd" clip-rule="evenodd" d="M-4 7.33333V9.33333H28V7.33333H-4Z" fill="#E31D1C"/>
<path fill-rule="evenodd" clip-rule="evenodd" d="M-4 22V24H28V22H-4Z" fill="#E31D1C"/>
<path fill-rule="evenodd" clip-rule="evenodd" d="M-4 11V13H28V11H-4Z" fill="#E31D1C"/>
<path fill-rule="evenodd" clip-rule="evenodd" d="M-4 0V2H28V0H-4Z" fill="#E31D1C"/>
<path fill-rule="evenodd" clip-rule="evenodd" d="M-4 3.66667V5.66667H28V3.66667H-4Z" fill="#E31D1C"/>
<path d="M-4 0H16V13H-4V0Z" fill="#2E42A5"/>
<path d="M-1.94744 9.96822H-1.22966L-1.79412 10.5415L-1.57537 11.4477L-2.27751 10.9389L-3.00408 11.4477L-2.75896 10.5415L-3.40349 9.96822H-2.56169L-2.27849 9.22897L-1.94744 9.96822Z" fill="#F7FCFF"/>
<path d="M2.05256 9.96822H2.77034L2.20588 10.5415L2.42463 11.4477L1.72249 10.9389L0.995923 11.4477L1.24104 10.5415L0.596509 9.96822H1.43831L1.72151 9.22897L2.05256 9.96822Z" fill="#F7FCFF"/>
<path d="M6.05256 9.96822H6.77034L6.20588 10.5415L6.42463 11.4477L5.72249 10.9389L4.99592 11.4477L5.24104 10.5415L4.59651 9.96822H5.43831L5.72151 9.22897L6.05256 9.96822Z" fill="#F7FCFF"/>
<path d="M10.0526 9.96822H10.7703L10.2059 10.5415L10.4246 11.4477L9.72249 10.9389L8.99592 11.4477L9.24104 10.5415L8.59651 9.96822H9.43831L9.72151 9.22897L10.0526 9.96822Z" fill="#F7FCFF"/>
<path d="M14.0526 9.96822H14.7703L14.2059 10.5415L14.4246 11.4477L13.7225 10.9389L12.9959 11.4477L13.241 10.5415L12.5965 9.96822H13.4383L13.7215 9.22897L14.0526 9.96822Z" fill="#F7FCFF"/>
<path d="M0.0525637 7.96822H0.770337L0.205884 8.54147L0.424634 9.44772L-0.277514 8.93893L-1.00408 9.44772L-0.75896 8.54147L-1.40349 7.96822H-0.561694L-0.278491 7.22897L0.0525637 7.96822Z" fill="#F7FCFF"/>
<path d="M4.05256 7.96822H4.77034L4.20588 8.54147L4.42463 9.44772L3.72249 8.93893L2.99592 9.44772L3.24104 8.54147L2.59651 7.96822H3.43831L3.72151 7.22897L4.05256 7.96822Z" fill="#F7FCFF"/>
<path d="M8.05256 7.96822H8.77034L8.20588 8.54147L8.42463 9.44772L7.72249 8.93893L6.99592 9.44772L7.24104 8.54147L6.59651 7.96822H7.43831L7.72151 7.22897L8.05256 7.96822Z" fill="#F7FCFF"/>
<path d="M12.0526 7.96822H12.7703L12.2059 8.54147L12.4246 9.44772L11.7225 8.93893L10.9959 9.44772L11.241 8.54147L10.5965 7.96822H11.4383L11.7215 7.22897L12.0526 7.96822Z" fill="#F7FCFF"/>
<path d="M-1.94744 5.96822H-1.22966L-1.79412 6.54147L-1.57537 7.44772L-2.27751 6.93893L-3.00408 7.44772L-2.75896 6.54147L-3.40349 5.96822H-2.56169L-2.27849 5.22897L-1.94744 5.96822Z" fill="#F7FCFF"/>
<path d="M2.05256 5.96822H2.77034L2.20588 6.54147L2.42463 7.44772L1.72249 6.93893L0.995923 7.44772L1.24104 6.54147L0.596509 5.96822H1.43831L1.72151 5.22897L2.05256 5.96822Z" fill="#F7FCFF"/>
<path d="M6.05256 5.96822H6.77034L6.20588 6.54147L6.42463 7.44772L5.72249 6.93893L4.99592 7.44772L5.24104 6.54147L4.59651 5.96822H5.43831L5.72151 5.22897L6.05256 5.96822Z" fill="#F7FCFF"/>
<path d="M10.0526 5.96822H10.7703L10.2059 6.54147L10.4246 7.44772L9.72249 6.93893L8.99592 7.44772L9.24104 6.54147L8.59651 5.96822H9.43831L9.72151 5.22897L10.0526 5.96822Z" fill="#F7FCFF"/>
<path d="M14.0526 5.96822H14.7703L14.2059 6.54147L14.4246 7.44772L13.7225 6.93893L12.9959 7.44772L13.241 6.54147L12.5965 5.96822H13.4383L13.7215 5.22897L14.0526 5.96822Z" fill="#F7FCFF"/>
<path d="M0.0525637 3.96822H0.770337L0.205884 4.54147L0.424634 5.44772L-0.277514 4.93893L-1.00408 5.44772L-0.75896 4.54147L-1.40349 3.96822H-0.561694L-0.278491 3.22897L0.0525637 3.96822Z" fill="#F7FCFF"/>
<path d="M4.05256 3.96822H4.77034L4.20588 4.54147L4.42463 5.44772L3.72249 4.93893L2.99592 5.44772L3.24104 4.54147L2.59651 3.96822H3.43831L3.72151 3.22897L4.05256 3.96822Z" fill="#F7FCFF"/>
<path d="M8.05256 3.96822H8.77034L8.20588 4.54147L8.42463 5.44772L7.72249 4.93893L6.99592 5.44772L7.24104 4.54147L6.59651 3.96822H7.43831L7.72151 3.22897L8.05256 3.96822Z" fill="#F7FCFF"/>
<path d="M12.0526 3.96822H12.7703L12.2059 4.54147L12.4246 5.44772L11.7225 4.93893L10.9959 5.44772L11.241 4.54147L10.5965 3.96822H11.4383L11.7215 3.22897L12.0526 3.96822Z" fill="#F7FCFF"/>
<path d="M-1.94744 1.96822H-1.22966L-1.79412 2.54147L-1.57537 3.44772L-2.27751 2.93893L-3.00408 3.44772L-2.75896 2.54147L-3.40349 1.96822H-2.56169L-2.27849 1.22897L-1.94744 1.96822Z" fill="#F7FCFF"/>
<path d="M2.05256 1.96822H2.77034L2.20588 2.54147L2.42463 3.44772L1.72249 2.93893L0.995923 3.44772L1.24104 2.54147L0.596509 1.96822H1.43831L1.72151 1.22897L2.05256 1.96822Z" fill="#F7FCFF"/>
<path d="M6.05256 1.96822H6.77034L6.20588 2.54147L6.42463 3.44772L5.72249 2.93893L4.99592 3.44772L5.24104 2.54147L4.59651 1.96822H5.43831L5.72151 1.22897L6.05256 1.96822Z" fill="#F7FCFF"/>
<path d="M10.0526 1.96822H10.7703L10.2059 2.54147L10.4246 3.44772L9.72249 2.93893L8.99592 3.44772L9.24104 2.54147L8.59651 1.96822H9.43831L9.72151 1.22897L10.0526 1.96822Z" fill="#F7FCFF"/>
<path d="M14.0526 1.96822H14.7703L14.2059 2.54147L14.4246 3.44772L13.7225 2.93893L12.9959 3.44772L13.241 2.54147L12.5965 1.96822H13.4383L13.7215 1.22897L14.0526 1.96822Z" fill="#F7FCFF"/>
</g>
</g>
<defs>
<filter id="filter0_d_1225_42826" x="0" y="0" width="26" height="26" filterUnits="userSpaceOnUse" color-interpolation-filters="sRGB">
<feFlood flood-opacity="0" result="BackgroundImageFix"/>
<feColorMatrix in="SourceAlpha" type="matrix" values="0 0 0 0 0 0 0 0 0 0 0 0 0 0 0 0 0 0 127 0" result="hardAlpha"/>
<feOffset dx="1" dy="1"/>
<feGaussianBlur stdDeviation="0.5"/>
<feComposite in2="hardAlpha" operator="out"/>
<feColorMatrix type="matrix" values="0 0 0 0 0 0 0 0 0 0 0 0 0 0 0 0 0 0 0.4 0"/>
<feBlend mode="normal" in2="BackgroundImageFix" result="effect1_dropShadow_1225_42826"/>
<feBlend mode="normal" in="SourceGraphic" in2="effect1_dropShadow_1225_42826" result="shape"/>
</filter>
</defs>
</svg>
