<svg width="32" height="24" viewBox="0 0 32 24" fill="none" xmlns="http://www.w3.org/2000/svg">
<g clip-path="url(#clip0_1661_2107)">
<g clip-path="url(#clip1_1661_2107)">
<rect width="32" height="24" fill="white"/>
<path fill-rule="evenodd" clip-rule="evenodd" d="M0 0H32V24H0V0Z" fill="#F7FCFF"/>
<path fill-rule="evenodd" clip-rule="evenodd" d="M0 14.6666V16.6666H32V14.6666H0Z" fill="#E31D1C"/>
<path fill-rule="evenodd" clip-rule="evenodd" d="M0 18.3334V20.3334H32V18.3334H0Z" fill="#E31D1C"/>
<path fill-rule="evenodd" clip-rule="evenodd" d="M0 7.33337V9.33337H32V7.33337H0Z" fill="#E31D1C"/>
<path fill-rule="evenodd" clip-rule="evenodd" d="M0 22V24H32V22H0Z" fill="#E31D1C"/>
<path fill-rule="evenodd" clip-rule="evenodd" d="M0 11V13H32V11H0Z" fill="#E31D1C"/>
<path fill-rule="evenodd" clip-rule="evenodd" d="M0 0V2H32V0H0Z" fill="#E31D1C"/>
<path fill-rule="evenodd" clip-rule="evenodd" d="M0 3.66663V5.66663H32V3.66663H0Z" fill="#E31D1C"/>
<rect width="20" height="13" fill="#2E42A5"/>
<path d="M2.05261 9.96826H2.77039L2.20593 10.5415L2.42468 11.4478L1.72253 10.939L0.995972 11.4478L1.24109 10.5415L0.596558 9.96826H1.43835L1.72156 9.229L2.05261 9.96826ZM6.05261 9.96826H6.77039L6.20593 10.5415L6.42468 11.4478L5.72253 10.939L4.99597 11.4478L5.24109 10.5415L4.59656 9.96826H5.43835L5.72156 9.229L6.05261 9.96826ZM10.0526 9.96826H10.7704L10.2059 10.5415L10.4247 11.4478L9.72253 10.939L8.99597 11.4478L9.24109 10.5415L8.59656 9.96826H9.43835L9.72156 9.229L10.0526 9.96826ZM14.0526 9.96826H14.7704L14.2059 10.5415L14.4247 11.4478L13.7225 10.939L12.996 11.4478L13.2411 10.5415L12.5966 9.96826H13.4384L13.7216 9.229L14.0526 9.96826ZM18.0526 9.96826H18.7704L18.2059 10.5415L18.4247 11.4478L17.7225 10.939L16.996 11.4478L17.2411 10.5415L16.5966 9.96826H17.4384L17.7216 9.229L18.0526 9.96826ZM4.05261 7.96826H4.77039L4.20593 8.5415L4.42468 9.44775L3.72253 8.93896L2.99597 9.44775L3.24109 8.5415L2.59656 7.96826H3.43835L3.72156 7.229L4.05261 7.96826ZM8.05261 7.96826H8.77039L8.20593 8.5415L8.42468 9.44775L7.72253 8.93896L6.99597 9.44775L7.24109 8.5415L6.59656 7.96826H7.43835L7.72156 7.229L8.05261 7.96826ZM12.0526 7.96826H12.7704L12.2059 8.5415L12.4247 9.44775L11.7225 8.93896L10.996 9.44775L11.2411 8.5415L10.5966 7.96826H11.4384L11.7216 7.229L12.0526 7.96826ZM16.0526 7.96826H16.7704L16.2059 8.5415L16.4247 9.44775L15.7225 8.93896L14.996 9.44775L15.2411 8.5415L14.5966 7.96826H15.4384L15.7216 7.229L16.0526 7.96826ZM2.05261 5.96826H2.77039L2.20593 6.5415L2.42468 7.44775L1.72253 6.93896L0.995972 7.44775L1.24109 6.5415L0.596558 5.96826H1.43835L1.72156 5.229L2.05261 5.96826ZM6.05261 5.96826H6.77039L6.20593 6.5415L6.42468 7.44775L5.72253 6.93896L4.99597 7.44775L5.24109 6.5415L4.59656 5.96826H5.43835L5.72156 5.229L6.05261 5.96826ZM10.0526 5.96826H10.7704L10.2059 6.5415L10.4247 7.44775L9.72253 6.93896L8.99597 7.44775L9.24109 6.5415L8.59656 5.96826H9.43835L9.72156 5.229L10.0526 5.96826ZM14.0526 5.96826H14.7704L14.2059 6.5415L14.4247 7.44775L13.7225 6.93896L12.996 7.44775L13.2411 6.5415L12.5966 5.96826H13.4384L13.7216 5.229L14.0526 5.96826ZM18.0526 5.96826H18.7704L18.2059 6.5415L18.4247 7.44775L17.7225 6.93896L16.996 7.44775L17.2411 6.5415L16.5966 5.96826H17.4384L17.7216 5.229L18.0526 5.96826ZM4.05261 3.96826H4.77039L4.20593 4.5415L4.42468 5.44775L3.72253 4.93896L2.99597 5.44775L3.24109 4.5415L2.59656 3.96826H3.43835L3.72156 3.229L4.05261 3.96826ZM8.05261 3.96826H8.77039L8.20593 4.5415L8.42468 5.44775L7.72253 4.93896L6.99597 5.44775L7.24109 4.5415L6.59656 3.96826H7.43835L7.72156 3.229L8.05261 3.96826ZM12.0526 3.96826H12.7704L12.2059 4.5415L12.4247 5.44775L11.7225 4.93896L10.996 5.44775L11.2411 4.5415L10.5966 3.96826H11.4384L11.7216 3.229L12.0526 3.96826ZM16.0526 3.96826H16.7704L16.2059 4.5415L16.4247 5.44775L15.7225 4.93896L14.996 5.44775L15.2411 4.5415L14.5966 3.96826H15.4384L15.7216 3.229L16.0526 3.96826ZM2.05261 1.96826H2.77039L2.20593 2.5415L2.42468 3.44775L1.72253 2.93896L0.995972 3.44775L1.24109 2.5415L0.596558 1.96826H1.43835L1.72156 1.229L2.05261 1.96826ZM6.05261 1.96826H6.77039L6.20593 2.5415L6.42468 3.44775L5.72253 2.93896L4.99597 3.44775L5.24109 2.5415L4.59656 1.96826H5.43835L5.72156 1.229L6.05261 1.96826ZM10.0526 1.96826H10.7704L10.2059 2.5415L10.4247 3.44775L9.72253 2.93896L8.99597 3.44775L9.24109 2.5415L8.59656 1.96826H9.43835L9.72156 1.229L10.0526 1.96826ZM14.0526 1.96826H14.7704L14.2059 2.5415L14.4247 3.44775L13.7225 2.93896L12.996 3.44775L13.2411 2.5415L12.5966 1.96826H13.4384L13.7216 1.229L14.0526 1.96826ZM18.0526 1.96826H18.7704L18.2059 2.5415L18.4247 3.44775L17.7225 2.93896L16.996 3.44775L17.2411 2.5415L16.5966 1.96826H17.4384L17.7216 1.229L18.0526 1.96826Z" fill="#F7FCFF"/>
</g>
</g>
<rect x="0.5" y="0.5" width="31" height="23" rx="1.5" stroke="black" stroke-opacity="0.1" style="mix-blend-mode:multiply"/>
<defs>
<clipPath id="clip0_1661_2107">
<rect width="32" height="24" rx="2" fill="white"/>
</clipPath>
<clipPath id="clip1_1661_2107">
<rect width="32" height="24" fill="white"/>
</clipPath>
</defs>
</svg>
