<svg width="32" height="24" viewBox="0 0 32 24" fill="none" xmlns="http://www.w3.org/2000/svg">
<g clip-path="url(#clip0_1661_2113)">
<g clip-path="url(#clip1_1661_2113)">
<rect width="32" height="24" fill="white"/>
<path fill-rule="evenodd" clip-rule="evenodd" d="M0 0V24H32V0H0Z" fill="#F7FCFF"/>
<mask id="mask0_1661_2113" style="mask-type:luminance" maskUnits="userSpaceOnUse" x="0" y="0" width="32" height="24">
<path fill-rule="evenodd" clip-rule="evenodd" d="M0 0V24H32V0H0Z" fill="white"/>
</mask>
<g mask="url(#mask0_1661_2113)">
<path fill-rule="evenodd" clip-rule="evenodd" d="M16 18.2195C19.2027 18.2195 21.799 15.4623 21.799 12.061C21.799 8.65974 19.2027 5.90247 16 5.90247C12.7972 5.90247 10.2009 8.65974 10.2009 12.061C10.2009 15.4623 12.7972 18.2195 16 18.2195Z" fill="#3D58DB"/>
<mask id="mask1_1661_2113" style="mask-type:luminance" maskUnits="userSpaceOnUse" x="10" y="5" width="12" height="14">
<path fill-rule="evenodd" clip-rule="evenodd" d="M16 18.2195C19.2027 18.2195 21.799 15.4623 21.799 12.061C21.799 8.65974 19.2027 5.90247 16 5.90247C12.7972 5.90247 10.2009 8.65974 10.2009 12.061C10.2009 15.4623 12.7972 18.2195 16 18.2195Z" fill="white"/>
</mask>
<g mask="url(#mask1_1661_2113)">
<path fill-rule="evenodd" clip-rule="evenodd" d="M22.0019 12.5328C22.0019 12.5328 21.6764 9.6288 19.2657 9.47116C16.8551 9.31351 16.2051 11.6007 16.066 12.2067C15.9269 12.8127 15.5748 14.4292 13.0366 14.4292C10.4985 14.4292 10.2695 10.3188 10.2695 10.3188V5.47192H22.0019V12.5328Z" fill="#E31D1C"/>
</g>
<path d="M11.2251 5.57458L7.12549 10.4916L6.21045 9.66443L10.3101 4.74646L11.2251 5.57458ZM9.72314 4.21912L5.63525 9.099L4.72021 8.27185L8.80811 3.39099L9.72314 4.21912ZM8.21436 2.87927L3.97412 7.83142L3.05908 7.00427L7.29932 2.05212L8.21436 2.87927Z" fill="#272727"/>
<path d="M24.2493 8.63977L25.8372 10.5021L26.7522 9.67786L25.1643 7.81458L24.2493 8.63977ZM22.9954 3.83118L27.4143 9.21204L28.3293 8.38782L23.9104 3.00696L22.9954 3.83118ZM27.2698 5.95618L28.8577 7.81946L29.7727 6.99426L28.1848 5.13196L27.2698 5.95618ZM21.428 5.21301L23.0149 7.07532L23.9309 6.2511L22.343 4.38879L21.428 5.21301ZM24.4485 2.52942L26.0364 4.3927L26.9514 3.56848L25.3635 1.7052L24.4485 2.52942Z" fill="#272727"/>
<path d="M26.4093 20.228L24.8087 22.0981L23.8859 21.27L25.4865 19.3999L26.4093 20.228ZM24.8898 18.8062L23.2189 20.8022L22.296 19.9751L23.9669 17.978L24.8898 18.8062ZM23.3634 17.5347L21.7628 19.4038L20.84 18.5767L22.4406 16.7065L23.3634 17.5347ZM28.9689 16.8608L27.3683 18.731L26.4454 17.9028L28.046 16.0327L28.9689 16.8608ZM27.631 15.478L25.9601 17.4751L25.0372 16.6479L26.7081 14.6509L27.631 15.478ZM26.0548 14.2437L24.4542 16.1128L23.5314 15.2856L25.132 13.4155L26.0548 14.2437Z" fill="#272727"/>
<path d="M3.39465 17.5157L7.50012 22.2599L8.41516 21.4337L4.30969 16.6906L3.39465 17.5157ZM7.3595 18.9835L9.08508 20.879L10.0001 20.0538L8.27454 18.1583L7.3595 18.9835ZM6.40637 14.8898L10.4913 19.5704L11.4064 18.7452L7.32141 14.0646L6.40637 14.8898ZM4.96106 16.1525L6.45618 17.9064L7.37122 17.0812L5.8761 15.3273L4.96106 16.1525Z" fill="#272727"/>
</g>
</g>
</g>
<rect x="0.5" y="0.5" width="31" height="23" rx="1.5" stroke="black" stroke-opacity="0.1" style="mix-blend-mode:multiply"/>
<defs>
<clipPath id="clip0_1661_2113">
<rect width="32" height="24" rx="2" fill="white"/>
</clipPath>
<clipPath id="clip1_1661_2113">
<rect width="32" height="24" fill="white"/>
</clipPath>
</defs>
</svg>
