<svg width="32" height="24" viewBox="0 0 32 24" fill="none" xmlns="http://www.w3.org/2000/svg">
<g clip-path="url(#clip0_1661_2116)">
<g clip-path="url(#clip1_1661_2116)">
<rect width="32" height="24" fill="white"/>
<path fill-rule="evenodd" clip-rule="evenodd" d="M0 0H32V24H0V0Z" fill="#F7FCFF"/>
<path fill-rule="evenodd" clip-rule="evenodd" d="M0 0V8H32V0H0Z" fill="#E31D1C"/>
<path fill-rule="evenodd" clip-rule="evenodd" d="M0 16V24H32V16H0Z" fill="#3D58DB"/>
<mask id="path-6-outside-1_1661_2116" maskUnits="userSpaceOnUse" x="-2" y="-7" width="36" height="38" fill="black">
<rect fill="white" x="-2" y="-7" width="36" height="38"/>
<path fill-rule="evenodd" clip-rule="evenodd" d="M15.4286 10L0 -2V26L15.4286 14H32V10H15.4286Z"/>
</mask>
<path fill-rule="evenodd" clip-rule="evenodd" d="M15.4286 10L0 -2V26L15.4286 14H32V10H15.4286Z" fill="#5EAA22"/>
<path d="M0 -2L1.22788 -3.5787L-2 -6.08928V-2H0ZM15.4286 10L14.2007 11.5787L14.7424 12H15.4286V10ZM0 26H-2V30.0893L1.22788 27.5787L0 26ZM15.4286 14V12H14.7424L14.2007 12.4213L15.4286 14ZM32 14V16H34V14H32ZM32 10H34V8H32V10ZM0 -2L-1.22788 -0.421296L14.2007 11.5787L15.4286 10L16.6565 8.4213L1.22788 -3.5787L0 -2ZM0 26H2V-2H0H-2V26H0ZM15.4286 14L14.2007 12.4213L-1.22788 24.4213L0 26L1.22788 27.5787L16.6565 15.5787L15.4286 14ZM32 14V12H15.4286V14V16H32V14ZM32 10H30V14H32H34V10H32ZM15.4286 10V12H32V10V8H15.4286V10Z" fill="#F7FCFF" mask="url(#path-6-outside-1_1661_2116)"/>
<path d="M0.599609 5.2002L8.59961 11.2002L9.66699 12L8.59961 12.7998L0.599609 18.7998L-1 20V4L0.599609 5.2002Z" fill="#272727" stroke="#FECA00" stroke-width="2"/>
</g>
</g>
<rect x="0.5" y="0.5" width="31" height="23" rx="1.5" stroke="black" stroke-opacity="0.1" style="mix-blend-mode:multiply"/>
<defs>
<clipPath id="clip0_1661_2116">
<rect width="32" height="24" rx="2" fill="white"/>
</clipPath>
<clipPath id="clip1_1661_2116">
<rect width="32" height="24" fill="white"/>
</clipPath>
</defs>
</svg>
