<svg width="32" height="24" viewBox="0 0 32 24" fill="none" xmlns="http://www.w3.org/2000/svg">
<g clip-path="url(#clip0_1661_3289)">
<g clip-path="url(#clip1_1661_3289)">
<rect width="32" height="24" fill="white"/>
<path fill-rule="evenodd" clip-rule="evenodd" d="M0 0V24H32V0H0Z" fill="#2E42A5"/>
<mask id="mask0_1661_3289" style="mask-type:luminance" maskUnits="userSpaceOnUse" x="0" y="0" width="32" height="24">
<path fill-rule="evenodd" clip-rule="evenodd" d="M0 0V24H32V0H0Z" fill="white"/>
</mask>
<g mask="url(#mask0_1661_3289)">
<path d="M-3.56311 22.2854L3.47858 25.2634L32.1598 3.23781L35.8741 -1.18767L28.3441 -2.18303L16.6457 7.30844L7.22968 13.7035L-3.56311 22.2854Z" fill="white"/>
<path d="M-2.59912 24.3719L0.988295 26.1001L34.5403 -1.59884H29.5032L-2.59912 24.3719Z" fill="#F50100"/>
<path d="M35.5632 22.2854L28.5215 25.2634L-0.159756 3.23781L-3.87408 -1.18767L3.65599 -2.18303L15.3544 7.30844L24.7704 13.7035L35.5632 22.2854Z" fill="white"/>
<path d="M35.3229 23.7829L31.7355 25.5111L17.4487 13.6518L13.2129 12.3267L-4.23151 -1.17246H0.805637L18.2403 12.0063L22.8713 13.5952L35.3229 23.7829Z" fill="#F50100"/>
<mask id="path-9-inside-1_1661_3289" fill="white">
<path d="M19.7775 8H34.0275V16H19.7775V26H12.2219V16H-1.97247V8H12.2219V-2H19.7775V8Z"/>
</mask>
<path d="M19.7775 8H34.0275V16H19.7775V26H12.2219V16H-1.97247V8H12.2219V-2H19.7775V8Z" fill="#F50100"/>
<path d="M19.7775 8H17.7775V10H19.7775V8ZM34.0275 8H36.0275V6H34.0275V8ZM34.0275 16V18H36.0275V16H34.0275ZM19.7775 16V14H17.7775V16H19.7775ZM19.7775 26V28H21.7775V26H19.7775ZM12.2219 26H10.2219V28H12.2219V26ZM12.2219 16H14.2219V14H12.2219V16ZM-1.97247 16H-3.97247V18H-1.97247V16ZM-1.97247 8V6H-3.97247V8H-1.97247ZM12.2219 8V10H14.2219V8H12.2219ZM12.2219 -2V-4H10.2219V-2H12.2219ZM19.7775 -2H21.7775V-4H19.7775V-2ZM19.7775 8V10H34.0275V8V6H19.7775V8ZM34.0275 8H32.0275V16H34.0275H36.0275V8H34.0275ZM34.0275 16V14H19.7775V16V18H34.0275V16ZM19.7775 16H17.7775V26H19.7775H21.7775V16H19.7775ZM19.7775 26V24H12.2219V26V28H19.7775V26ZM12.2219 26H14.2219V16H12.2219H10.2219V26H12.2219ZM12.2219 16V14H-1.97247V16V18H12.2219V16ZM-1.97247 16H0.0275269V8H-1.97247H-3.97247V16H-1.97247ZM-1.97247 8V10H12.2219V8V6H-1.97247V8ZM12.2219 8H14.2219V-2H12.2219H10.2219V8H12.2219ZM12.2219 -2V0H19.7775V-2V-4H12.2219V-2ZM19.7775 -2H17.7775V8H19.7775H21.7775V-2H19.7775Z" fill="white" mask="url(#path-9-inside-1_1661_3289)"/>
</g>
</g>
</g>
<rect x="0.5" y="0.5" width="31" height="23" rx="1.5" stroke="black" stroke-opacity="0.1" style="mix-blend-mode:multiply"/>
<defs>
<clipPath id="clip0_1661_3289">
<rect width="32" height="24" rx="2" fill="white"/>
</clipPath>
<clipPath id="clip1_1661_3289">
<rect width="32" height="24" fill="white"/>
</clipPath>
</defs>
</svg>
