<svg width="24" height="24" viewBox="0 0 24 24" fill="none" xmlns="http://www.w3.org/2000/svg">
<path d="M13.0775 21C12.5332 21 12.1471 20.7694 11.9189 20.3083C11.6899 19.848 11.7278 19.4036 12.0325 18.975L17.0938 12L12.0325 5.025C11.7278 4.59643 11.6899 4.15157 11.9189 3.69043C12.1471 3.23014 12.5332 3 13.0775 3C13.3169 3 13.5346 3.05871 13.7305 3.17614C13.9264 3.29443 14.0897 3.43929 14.2203 3.61071L19.7388 11.2607C19.8258 11.3679 19.8912 11.4857 19.9347 11.6143C19.9782 11.7429 20 11.8714 20 12C20 12.1286 19.9782 12.2516 19.9347 12.369C19.8912 12.4873 19.8258 12.6107 19.7388 12.7393L14.2203 20.3893C14.0897 20.5607 13.9264 20.7056 13.7305 20.8239C13.5346 20.9413 13.3169 21 13.0775 21ZM5.30593 21C4.7617 21 4.37552 20.7694 4.14738 20.3083C3.91837 19.848 3.95625 19.4036 4.26102 18.975L9.32231 12L4.26102 5.025C3.95625 4.59643 3.91837 4.15157 4.14738 3.69043C4.37552 3.23014 4.7617 3 5.30593 3C5.54539 3 5.76308 3.05871 5.959 3.17614C6.15492 3.29443 6.31819 3.43929 6.4488 3.61071L11.9672 11.2607C12.0543 11.3679 12.1196 11.4857 12.1632 11.6143C12.2067 11.7429 12.2285 11.8714 12.2285 12C12.2285 12.1286 12.2067 12.2571 12.1632 12.3857C12.1196 12.5143 12.0543 12.6321 11.9672 12.7393L6.4488 20.3893C6.31819 20.5607 6.15492 20.7056 5.959 20.8239C5.76308 20.9413 5.54539 21 5.30593 21Z" fill="#333740"/>
</svg>
