<svg width="20" height="20" viewBox="0 0 20 20" fill="none" xmlns="http://www.w3.org/2000/svg">
<path d="M14.5369 4.66683H13.8887V3.3335H12.5924V4.66683H7.40724V3.3335H6.11095V4.66683H5.4628C4.74336 4.66683 4.17299 5.26683 4.17299 6.00016L4.1665 15.3335C4.1665 15.6871 4.30308 16.0263 4.54618 16.2763C4.78928 16.5264 5.119 16.6668 5.4628 16.6668H14.5369C15.2498 16.6668 15.8332 16.0668 15.8332 15.3335V6.00016C15.8332 5.26683 15.2498 4.66683 14.5369 4.66683ZM14.5369 15.3335H5.4628V8.66683H14.5369V15.3335ZM8.05539 11.3335H6.7591V10.0002H8.05539V11.3335ZM10.648 11.3335H9.35169V10.0002H10.648V11.3335ZM13.2406 11.3335H11.9443V10.0002H13.2406V11.3335ZM8.05539 14.0002H6.7591V12.6668H8.05539V14.0002ZM10.648 14.0002H9.35169V12.6668H10.648V14.0002ZM13.2406 14.0002H11.9443V12.6668H13.2406V14.0002Z" fill="#333740"/>
</svg>
