<svg width="24" height="24" viewBox="0 0 24 24" fill="none" xmlns="http://www.w3.org/2000/svg">
<path d="M17.25 8.9375H16.375V7.1875C16.375 4.7725 14.415 2.8125 12 2.8125C9.585 2.8125 7.625 4.7725 7.625 7.1875V8.9375H6.75C5.7875 8.9375 5 9.725 5 10.6875V19.4375C5 20.4 5.7875 21.1875 6.75 21.1875H17.25C18.2125 21.1875 19 20.4 19 19.4375V10.6875C19 9.725 18.2125 8.9375 17.25 8.9375ZM9.375 7.1875C9.375 5.735 10.5475 4.5625 12 4.5625C13.4525 4.5625 14.625 5.735 14.625 7.1875V8.9375H9.375V7.1875ZM16.375 19.4375H7.625C7.14375 19.4375 6.75 19.0438 6.75 18.5625V11.5625C6.75 11.0813 7.14375 10.6875 7.625 10.6875H16.375C16.8562 10.6875 17.25 11.0813 17.25 11.5625V18.5625C17.25 19.0438 16.8562 19.4375 16.375 19.4375ZM12 16.8125C12.9625 16.8125 13.75 16.025 13.75 15.0625C13.75 14.1 12.9625 13.3125 12 13.3125C11.0375 13.3125 10.25 14.1 10.25 15.0625C10.25 16.025 11.0375 16.8125 12 16.8125Z" fill="black"/>
</svg>
