<svg width="24" height="24" viewBox="0 0 24 24" fill="none" xmlns="http://www.w3.org/2000/svg">
<path d="M4.7561 21C4.27317 21 3.85961 20.8281 3.51541 20.4843C3.1718 20.1411 3 19.7284 3 19.246V6.96833C3 6.48599 3.1718 6.07294 3.51541 5.72916C3.85961 5.38597 4.27317 5.21437 4.7561 5.21437H12.5927L10.8366 6.96833H4.7561V19.246H17.0488V13.151L18.8049 11.3971V19.246C18.8049 19.7284 18.6331 20.1411 18.2895 20.4843C17.9453 20.8281 17.5317 21 17.0488 21H4.7561ZM14.5683 5.71864L15.8195 6.94641L10.0244 12.7345V13.9842H11.2537L17.0707 8.17418L18.322 9.40195L12 15.7381H8.26829V12.011L14.5683 5.71864ZM18.322 9.40195L14.5683 5.71864L16.7634 3.52619C17.1146 3.1754 17.5355 3 18.026 3C18.516 3 18.9293 3.1754 19.2659 3.52619L20.4951 4.77588C20.8317 5.11206 21 5.52132 21 6.00365C21 6.48599 20.8317 6.89525 20.4951 7.23142L18.322 9.40195Z" fill="#333740"/>
</svg>
