<svg width="24" height="24" viewBox="0 0 24 24" fill="none" xmlns="http://www.w3.org/2000/svg">
<mask id="path-1-inside-1_47_237" fill="white">
<path d="M11.9998 4.68924C14.2874 2.43712 17.9963 2.43712 20.2839 4.68924C22.5713 6.94138 22.5715 10.5925 20.2839 12.8445L11.9998 20.9998L3.71558 12.8445C1.42804 10.5925 1.42824 6.94138 3.71558 4.68924C5.93165 2.50759 9.48148 2.43904 11.781 4.48416L11.9998 4.68924Z"/>
</mask>
<path d="M11.9998 4.68924L10.6319 6.14831L12.0336 7.46245L13.4029 6.11448L11.9998 4.68924ZM20.2839 4.68924L21.6872 3.26411L21.687 3.264L20.2839 4.68924ZM20.2839 12.8445L21.687 14.2698L21.687 14.2697L20.2839 12.8445ZM11.9998 20.9998L10.5967 22.425L11.9998 23.8063L13.4028 22.425L11.9998 20.9998ZM3.71558 12.8445L2.31248 14.2697L2.3125 14.2698L3.71558 12.8445ZM3.71558 4.68924L2.31248 3.264L2.31238 3.2641L3.71558 4.68924ZM11.781 4.48416L13.1489 3.02508L13.1297 3.00713L13.1101 2.98969L11.781 4.48416ZM11.9998 4.68924L13.4029 6.11448C14.9121 4.62871 17.3716 4.62871 18.8808 6.11448L20.2839 4.68924L21.687 3.264C18.621 0.245531 13.6628 0.245531 10.5967 3.264L11.9998 4.68924ZM20.2839 4.68924L18.8807 6.11437C20.3724 7.58314 20.3724 9.95087 18.8808 11.4193L20.2839 12.8445L21.687 14.2697C24.7706 11.2341 24.7701 6.29962 21.6872 3.26411L20.2839 4.68924ZM20.2839 12.8445L18.8809 11.4193L10.5967 19.5745L11.9998 20.9998L13.4028 22.425L21.687 14.2698L20.2839 12.8445ZM11.9998 20.9998L13.4028 19.5745L5.11866 11.4193L3.71558 12.8445L2.3125 14.2698L10.5967 22.425L11.9998 20.9998ZM3.71558 12.8445L5.11869 11.4193C3.62711 9.95086 3.62707 7.58314 5.11879 6.11437L3.71558 4.68924L2.31238 3.2641C-0.770587 6.29962 -0.771032 11.2341 2.31248 14.2697L3.71558 12.8445ZM3.71558 4.68924L5.11868 6.11448C6.57965 4.6762 8.93442 4.62905 10.4519 5.97863L11.781 4.48416L13.1101 2.98969C10.0285 0.249038 5.28365 0.338974 2.31248 3.264L3.71558 4.68924ZM11.781 4.48416L10.4131 5.94323L10.6319 6.14831L11.9998 4.68924L13.3676 3.23016L13.1489 3.02508L11.781 4.48416Z" fill="#333740" mask="url(#path-1-inside-1_47_237)"/>
</svg>
