<svg width="24" height="24" viewBox="0 0 24 24" fill="none" xmlns="http://www.w3.org/2000/svg">
<g clip-path="url(#clip0_47_204)">
<path d="M14.3333 4.8C14.6507 4.8 14.968 4.818 15.276 4.863C13.4933 6.807 12.4667 9.345 12.4667 12C12.4667 14.655 13.4933 17.193 15.276 19.137C14.968 19.182 14.6507 19.2 14.3333 19.2C10.2173 19.2 6.86667 15.969 6.86667 12C6.86667 8.031 10.2173 4.8 14.3333 4.8ZM14.3333 3C9.18133 3 5 7.032 5 12C5 16.968 9.18133 21 14.3333 21C16.032 21 17.628 20.55 19 19.785C16.2093 18.228 14.3333 15.33 14.3333 12C14.3333 8.67 16.2093 5.772 19 4.215C17.628 3.45 16.032 3 14.3333 3Z" fill="#333740"/>
</g>
<defs>
<clipPath id="clip0_47_204">
<rect width="24" height="24" fill="white"/>
</clipPath>
</defs>
</svg>
