<svg width="24" height="24" viewBox="0 0 24 24" fill="none" xmlns="http://www.w3.org/2000/svg">
<g clip-path="url(#clip0_47_203)">
<path d="M12 9.27273C13.5 9.27273 14.7273 10.5 14.7273 12C14.7273 13.5 13.5 14.7273 12 14.7273C10.5 14.7273 9.27273 13.5 9.27273 12C9.27273 10.5 10.5 9.27273 12 9.27273ZM12 7.45455C9.49091 7.45455 7.45455 9.49091 7.45455 12C7.45455 14.5091 9.49091 16.5455 12 16.5455C14.5091 16.5455 16.5455 14.5091 16.5455 12C16.5455 9.49091 14.5091 7.45455 12 7.45455ZM2.90909 12.9091H4.72727C5.22727 12.9091 5.63636 12.5 5.63636 12C5.63636 11.5 5.22727 11.0909 4.72727 11.0909H2.90909C2.40909 11.0909 2 11.5 2 12C2 12.5 2.40909 12.9091 2.90909 12.9091ZM19.2727 12.9091H21.0909C21.5909 12.9091 22 12.5 22 12C22 11.5 21.5909 11.0909 21.0909 11.0909H19.2727C18.7727 11.0909 18.3636 11.5 18.3636 12C18.3636 12.5 18.7727 12.9091 19.2727 12.9091ZM11.0909 2.90909V4.72727C11.0909 5.22727 11.5 5.63636 12 5.63636C12.5 5.63636 12.9091 5.22727 12.9091 4.72727V2.90909C12.9091 2.40909 12.5 2 12 2C11.5 2 11.0909 2.40909 11.0909 2.90909ZM11.0909 19.2727V21.0909C11.0909 21.5909 11.5 22 12 22C12.5 22 12.9091 21.5909 12.9091 21.0909V19.2727C12.9091 18.7727 12.5 18.3636 12 18.3636C11.5 18.3636 11.0909 18.7727 11.0909 19.2727ZM6.53636 5.25455C6.18182 4.9 5.6 4.9 5.25455 5.25455C4.9 5.60909 4.9 6.19091 5.25455 6.53636L6.21818 7.5C6.57273 7.85455 7.15455 7.85455 7.5 7.5C7.84545 7.14545 7.85455 6.56364 7.5 6.21818L6.53636 5.25455ZM17.7818 16.5C17.4273 16.1455 16.8455 16.1455 16.5 16.5C16.1455 16.8545 16.1455 17.4364 16.5 17.7818L17.4636 18.7455C17.8182 19.1 18.4 19.1 18.7455 18.7455C19.1 18.3909 19.1 17.8091 18.7455 17.4636L17.7818 16.5ZM18.7455 6.53636C19.1 6.18182 19.1 5.6 18.7455 5.25455C18.3909 4.9 17.8091 4.9 17.4636 5.25455L16.5 6.21818C16.1455 6.57273 16.1455 7.15455 16.5 7.5C16.8545 7.84545 17.4364 7.85455 17.7818 7.5L18.7455 6.53636ZM7.5 17.7818C7.85455 17.4273 7.85455 16.8455 7.5 16.5C7.14545 16.1455 6.56364 16.1455 6.21818 16.5L5.25455 17.4636C4.9 17.8182 4.9 18.4 5.25455 18.7455C5.60909 19.0909 6.19091 19.1 6.53636 18.7455L7.5 17.7818Z" fill="#333740"/>
</g>
<defs>
<clipPath id="clip0_47_203">
<rect width="24" height="24" fill="white"/>
</clipPath>
</defs>
</svg>
