<svg width="20" height="20" viewBox="0 0 20 20" fill="none" xmlns="http://www.w3.org/2000/svg">
<path d="M10.3008 3.34082C13.3824 3.49734 15.8336 6.04553 15.834 9.16602L15.8262 9.4668C15.7534 10.9009 15.1617 12.1982 14.2363 13.1758L17.1963 16.1357L16.1357 17.1963L13.0664 14.127C12.1751 14.6792 11.1255 14.9999 10 15L9.7002 14.9922C6.71753 14.841 4.32614 12.4494 4.1748 9.4668L4.16699 9.16602C4.16734 5.94476 6.77871 3.33318 10 3.33301L10.3008 3.34082ZM10 4.83301C7.60713 4.83318 5.66734 6.77319 5.66699 9.16602C5.66699 11.5591 7.60692 13.4998 10 13.5C12.3931 13.4998 14.334 11.5591 14.334 9.16602C14.3336 6.77319 12.3929 4.83318 10 4.83301Z" fill="#333740"/>
</svg>
