<svg width="24" height="24" viewBox="0 0 24 24" fill="none" xmlns="http://www.w3.org/2000/svg">
<path d="M11.5679 2.74179C11.7608 2.41066 12.2392 2.41066 12.4321 2.74179L15.1219 7.36001C15.1926 7.48131 15.311 7.56733 15.4482 7.59704L20.6716 8.72815C21.0461 8.80925 21.1939 9.26421 20.9386 9.54997L17.3776 13.5353C17.2841 13.64 17.2389 13.7791 17.253 13.9188L17.7914 19.2361C17.83 19.6173 17.443 19.8985 17.0923 19.744L12.2016 17.5888C12.0732 17.5322 11.9268 17.5322 11.7984 17.5888L6.9077 19.744C6.55703 19.8985 6.17002 19.6173 6.20862 19.2361L6.74699 13.9188C6.76113 13.7791 6.71591 13.64 6.62238 13.5353L3.06141 9.54997C2.80608 9.26421 2.95391 8.80925 3.32844 8.72815L8.55184 7.59704C8.68904 7.56733 8.80742 7.48131 8.87807 7.36001L11.5679 2.74179Z" stroke="#333740" stroke-width="2"/>
</svg>
