<svg width="24" height="24" viewBox="0 0 24 24" fill="none" xmlns="http://www.w3.org/2000/svg">
<path d="M12.7778 21C12.5574 21 12.3728 20.9177 12.224 20.7531C12.0747 20.5891 12 20.3857 12 20.1429C12 19.9 12.0747 19.6966 12.224 19.5326C12.3728 19.368 12.5574 19.2857 12.7778 19.2857H17.4444V18.4286H15.8889C15.4611 18.4286 15.095 18.2609 14.7907 17.9254C14.4858 17.5894 14.3333 17.1857 14.3333 16.7143V13.2857C14.3333 12.8143 14.4858 12.4106 14.7907 12.0746C15.095 11.7391 15.4611 11.5714 15.8889 11.5714H17.4444V10.7143C17.4444 9.05714 16.913 7.64286 15.85 6.47143C14.787 5.3 13.5037 4.71429 12 4.71429C10.4963 4.71429 9.21296 5.3 8.15 6.47143C7.08704 7.64286 6.55556 9.05714 6.55556 10.7143V11.5714H8.11111C8.53889 11.5714 8.90496 11.7391 9.20933 12.0746C9.51422 12.4106 9.66667 12.8143 9.66667 13.2857V16.7143C9.66667 17.1857 9.51422 17.5894 9.20933 17.9254C8.90496 18.2609 8.53889 18.4286 8.11111 18.4286H6.55556C6.12778 18.4286 5.76144 18.2609 5.45656 17.9254C5.15219 17.5894 5 17.1857 5 16.7143V10.7143C5 9.65714 5.18459 8.66057 5.55378 7.72457C5.92348 6.78914 6.42593 5.97143 7.06111 5.27143C7.6963 4.57143 8.4383 4.01771 9.28711 3.61029C10.1364 3.20343 11.0407 3 12 3C12.9593 3 13.8636 3.20343 14.7129 3.61029C15.5617 4.01771 16.3037 4.57143 16.9389 5.27143C17.5741 5.97143 18.0765 6.78914 18.4462 7.72457C18.8154 8.66057 19 9.65714 19 10.7143V19.2857C19 19.7571 18.8478 20.1609 18.5434 20.4969C18.2386 20.8323 17.8722 21 17.4444 21H12.7778ZM6.55556 16.7143H8.11111V13.2857H6.55556V16.7143ZM15.8889 16.7143H17.4444V13.2857H15.8889V16.7143Z" fill="#333740"/>
</svg>
