<svg width="20" height="20" viewBox="0 0 20 20" fill="none" xmlns="http://www.w3.org/2000/svg">
<path d="M9.9935 3.3335C6.3135 3.3335 3.3335 6.32016 3.3335 10.0002C3.3335 13.6802 6.3135 16.6668 9.9935 16.6668C13.6802 16.6668 16.6668 13.6802 16.6668 10.0002C16.6668 6.32016 13.6802 3.3335 9.9935 3.3335ZM10.0002 15.3335C7.0535 15.3335 4.66683 12.9468 4.66683 10.0002C4.66683 7.0535 7.0535 4.66683 10.0002 4.66683C12.9468 4.66683 15.3335 7.0535 15.3335 10.0002C15.3335 12.9468 12.9468 15.3335 10.0002 15.3335Z" fill="#333740"/>
<path d="M10.3335 6.66699H9.3335V10.667L12.8335 12.767L13.3335 11.947L10.3335 10.167V6.66699Z" fill="#333740"/>
</svg>
