<svg xmlns="http://www.w3.org/2000/svg" width="20" height="20" fill="none" viewBox="0 0 20 20"><path fill="#333740" d="M14.537 4.667h-.648V3.334h-1.297v1.333H7.407V3.334H6.111v1.333h-.648c-.72 0-1.29.6-1.29 1.333l-.006 9.334c0 .353.136.692.38.942.242.25.572.39.916.39h9.074c.713 0 1.296-.6 1.296-1.332V6c0-.733-.583-1.333-1.296-1.333m0 10.667H5.463V8.667h9.074zm-6.482-4H6.76V10h1.296zm2.593 0H9.352V10h1.296zm2.593 0h-1.297V10h1.297zM8.055 14H6.76v-1.333h1.296zm2.593 0H9.352v-1.333h1.296zm2.593 0h-1.297v-1.333h1.297z"/></svg>