<svg xmlns="http://www.w3.org/2000/svg" width="24" height="24" fill="none" viewBox="0 0 24 24"><mask id="a" fill="#fff"><path d="M12 4.69c2.287-2.253 5.996-2.253 8.284 0a5.704 5.704 0 0 1 0 8.154L12 21l-8.284-8.155a5.704 5.704 0 0 1 0-8.156c2.216-2.181 5.765-2.25 8.065-.205z"/></mask><path fill="#333740" d="m12 4.69-1.368 1.458 1.402 1.314 1.369-1.348zm8.284 0 1.403-1.426zm0 8.154 1.403 1.426zM12 21l-1.403 1.425L12 23.806l1.403-1.381zm-8.284-8.155L2.312 14.27zm0-8.156L2.312 3.264zm8.065-.205 1.368-1.459-.02-.018-.019-.017zM12 4.69l1.403 1.425a3.923 3.923 0 0 1 5.478 0l1.403-1.425 1.403-1.425c-3.066-3.018-8.024-3.018-11.09 0zm8.284 0L18.88 6.114a3.704 3.704 0 0 1 0 5.305l1.403 1.425 1.403 1.426a7.704 7.704 0 0 0 0-11.006zm0 8.156-1.403-1.426-8.284 8.156L12 21l1.403 1.425 8.284-8.155zM12 21l1.403-1.425-8.284-8.156-1.403 1.425-1.404 1.426 8.285 8.155zm-8.284-8.155 1.403-1.426a3.704 3.704 0 0 1 0-5.305L3.716 4.69 2.312 3.264a7.704 7.704 0 0 0 0 11.006zm0-8.156 1.403 1.425c1.46-1.438 3.815-1.485 5.333-.135l1.329-1.495 1.33-1.494C10.027.249 5.283.339 2.311 3.264zm8.065-.205-1.368 1.46.219.204L12 4.69l1.368-1.459-.22-.205z" mask="url(#a)"/></svg>