<svg xmlns="http://www.w3.org/2000/svg" width="26" height="26" fill="none" viewBox="0 0 26 26"><g filter="url(#a)"><mask id="b" width="24" height="24" x="0" y="0" maskUnits="userSpaceOnUse" style="mask-type:alpha"><circle cx="12" cy="12" r="12" fill="#d9d9d9"/></mask><g fill-rule="evenodd" clip-rule="evenodd" mask="url(#b)"><path fill="#e31d1c" d="M-1 0h32v24H-1z"/><path fill="#feca00" d="m14.016 4.548-1.01.61.23-1.19-.841-.89 1.139-.049.481-1.111.482 1.111h1.137l-.839.939.253 1.19zM6.017 9.607l-2.88 1.551.657-3.027-2.4-2.265 3.249-.122 1.374-2.826 1.375 2.826h3.242L8.241 8.131l.72 3.027zM16.016 8.548l-1.01.61.23-1.19-.841-.89 1.139-.049.481-1.111.482 1.111h1.137l-.839.939.253 1.19zM15.016 12.548l-1.01.61.23-1.19-.841-.89 1.139-.049.481-1.111.482 1.111h1.137l-.839.939.253 1.19zM12.016 15.548l-1.01.61.23-1.19-.841-.89 1.139-.049.481-1.111.482 1.111h1.137l-.839.939.253 1.19z"/></g></g><defs><filter id="a" width="26" height="26" x="0" y="0" color-interpolation-filters="sRGB" filterUnits="userSpaceOnUse"><feFlood flood-opacity="0" result="BackgroundImageFix"/><feColorMatrix in="SourceAlpha" result="hardAlpha" values="0 0 0 0 0 0 0 0 0 0 0 0 0 0 0 0 0 0 127 0"/><feOffset dx="1" dy="1"/><feGaussianBlur stdDeviation=".5"/><feComposite in2="hardAlpha" operator="out"/><feColorMatrix values="0 0 0 0 0 0 0 0 0 0 0 0 0 0 0 0 0 0 0.4 0"/><feBlend in2="BackgroundImageFix" result="effect1_dropShadow_1225_43116"/><feBlend in="SourceGraphic" in2="effect1_dropShadow_1225_43116" result="shape"/></filter></defs></svg>