<svg xmlns="http://www.w3.org/2000/svg" width="26" height="26" fill="none" viewBox="0 0 26 26"><g filter="url(#a)"><mask id="b" width="24" height="24" x="0" y="0" maskUnits="userSpaceOnUse" style="mask-type:alpha"><circle cx="12" cy="12" r="12" fill="#d9d9d9"/></mask><g mask="url(#b)"><path fill="#e31d1c" fill-rule="evenodd" d="M-4 0v24h32V0z" clip-rule="evenodd"/><mask id="c" width="32" height="24" x="-4" y="0" maskUnits="userSpaceOnUse" style="mask-type:luminance"><path fill="#fff" fill-rule="evenodd" d="M-4 0v24h32V0z" clip-rule="evenodd"/></mask><g mask="url(#c)"><path fill="#f7fcff" d="M11.75 4.085c1.853-.003 4.114 1.077 4.764 2.613 0 0-2.073-1.196-4.426-.633s-3.843 2.642-3.861 5.101c-.02 2.628 1.657 4.42 3.799 4.947 2.133.526 4.382-.717 4.398-.726-.276.815-1.604 2.73-4.402 2.735-3.492.005-7.462-2.52-7.43-6.956.032-4.278 3.709-7.075 7.158-7.08m6.66 5.757 2.219-.747-1.363 1.904 2.076 1.784-2.62-.19-1.586 1.904.04-2.538-2.406-.848 2.133-.785-.08-2.248z"/></g></g></g><defs><filter id="a" width="26" height="26" x="0" y="0" color-interpolation-filters="sRGB" filterUnits="userSpaceOnUse"><feFlood flood-opacity="0" result="BackgroundImageFix"/><feColorMatrix in="SourceAlpha" result="hardAlpha" values="0 0 0 0 0 0 0 0 0 0 0 0 0 0 0 0 0 0 127 0"/><feOffset dx="1" dy="1"/><feGaussianBlur stdDeviation=".5"/><feComposite in2="hardAlpha" operator="out"/><feColorMatrix values="0 0 0 0 0 0 0 0 0 0 0 0 0 0 0 0 0 0 0.4 0"/><feBlend in2="BackgroundImageFix" result="effect1_dropShadow_1225_43352"/><feBlend in="SourceGraphic" in2="effect1_dropShadow_1225_43352" result="shape"/></filter></defs></svg>