<svg xmlns="http://www.w3.org/2000/svg" width="26" height="26" fill="none" viewBox="0 0 26 26"><g filter="url(#a)"><mask id="b" width="24" height="24" x="0" y="0" maskUnits="userSpaceOnUse" style="mask-type:alpha"><circle cx="12" cy="12" r="12" fill="#d9d9d9"/></mask><g mask="url(#b)"><path fill="#2e42a5" fill-rule="evenodd" d="M-3.5.5v24h32V.5z" clip-rule="evenodd"/><path fill="#f7fcff" d="m-5.004 14 3.96 1.737L15.09 2.889 17.179.307l-4.236-.58-6.58 5.536-5.296 3.73z"/><path fill="#f50100" d="m-4.462 15.217 2.018 1.008L16.429.067h-2.834z"/><path fill="#f7fcff" d="m17.004 14-3.96 1.737L-3.09 2.889-5.18.307l4.236-.58 6.58 5.536 5.297 3.73z"/><path fill="#f50100" d="m16.277 14.319-1.186.52-.937.411-7.34-6.287-2.382-.772L-5.38.316h2.833L7.26 8.004l2.605.926z"/><path fill="#f50100" fill-rule="evenodd" d="M6.984 1h-2v6H-3v2h7.984v6h2V9H15V7H6.984z" clip-rule="evenodd"/><path fill="#f7fcff" fill-rule="evenodd" d="M3.484 1h5v4.5H15v5H8.484L8.5 15h-5l-.016-4.5H-3v-5h6.484zm1.5 6H-3v2h7.984v6h2V9H15V7H6.984V1h-2z" clip-rule="evenodd"/><path fill="#f7fcff" d="m6 21.5-1.302 1.203.13-1.768-1.753-.267 1.462-1.002-.883-1.537 1.695.52.65-1.649.652 1.648 1.694-.518-.883 1.536 1.463 1.002-1.752.267.129 1.768zM19 14l-.868.802.086-1.178-1.168-.179.975-.668-.589-1.024 1.13.346L19 11l.434 1.099 1.13-.346-.59 1.024.976.668-1.168.178.086 1.179zM21 6l-.868.802.086-1.179-1.168-.178.975-.668-.589-1.024 1.13.346L21 3l.434 1.099 1.13-.346-.59 1.024.976.668-1.168.178.086 1.179zM26 10l-.868.802.086-1.179-1.168-.178.975-.668-.589-1.024 1.13.346L26 7l.434 1.099 1.13-.346-.59 1.024.976.668-1.168.178.086 1.179zM22 23l-.868.802.086-1.178-1.168-.179.975-.668-.589-1.024 1.13.346L22 20l.434 1.099 1.13-.346-.59 1.024.976.668-1.168.178.086 1.179zM25.5 15.25l-.882.463.169-.981-.714-.696.986-.143.44-.893.442.893.985.143-.713.696.168.982z"/></g></g><defs><filter id="a" width="26" height="26" x="0" y="0" color-interpolation-filters="sRGB" filterUnits="userSpaceOnUse"><feFlood flood-opacity="0" result="BackgroundImageFix"/><feColorMatrix in="SourceAlpha" result="hardAlpha" values="0 0 0 0 0 0 0 0 0 0 0 0 0 0 0 0 0 0 127 0"/><feOffset dx="1" dy="1"/><feGaussianBlur stdDeviation=".5"/><feComposite in2="hardAlpha" operator="out"/><feColorMatrix values="0 0 0 0 0 0 0 0 0 0 0 0 0 0 0 0 0 0 0.4 0"/><feBlend in2="BackgroundImageFix" result="effect1_dropShadow_1225_42653"/><feBlend in="SourceGraphic" in2="effect1_dropShadow_1225_42653" result="shape"/></filter></defs></svg>