<svg xmlns="http://www.w3.org/2000/svg" width="26" height="26" fill="none" viewBox="0 0 26 26"><g filter="url(#a)"><mask id="b" width="24" height="24" x="0" y="0" maskUnits="userSpaceOnUse" style="mask-type:alpha"><circle cx="12" cy="12" r="12" fill="#d9d9d9"/></mask><g mask="url(#b)"><path fill="#2e42a5" fill-rule="evenodd" d="M-4 0v24h32V0z" clip-rule="evenodd"/><mask id="c" width="32" height="24" x="-4" y="0" maskUnits="userSpaceOnUse" style="mask-type:luminance"><path fill="#fff" fill-rule="evenodd" d="M-4 0v24h32V0z" clip-rule="evenodd"/></mask><g mask="url(#c)"><path fill="#fff" d="m-7.563 22.285 7.042 2.978 28.68-22.025 3.715-4.426-7.53-.995-11.698 9.491-9.416 6.395z"/><path fill="#f50100" d="m-6.6 24.372 3.588 1.728L30.54-1.599h-5.037z"/><path fill="#fff" d="m31.563 22.285-7.042 2.978-28.68-22.025-3.715-4.426 7.53-.995 11.698 9.491 9.416 6.395z"/><path fill="#f50100" d="m31.323 23.783-3.588 1.728L13.45 13.65l-4.236-1.325L-8.232-1.173h5.038L14.24 12.006l4.631 1.589z"/><mask id="d" fill="#fff"><path d="M15.778 8h14.25v8h-14.25v10H8.222V16H-5.972V8H8.222V-2h7.556z"/></mask><path fill="#f50100" d="M15.778 8h14.25v8h-14.25v10H8.222V16H-5.972V8H8.222V-2h7.556z"/><path fill="#fff" d="M15.778 8h-2v2h2zm14.25 0h2V6h-2zm0 8v2h2v-2zm-14.25 0v-2h-2v2zm0 10v2h2v-2zm-7.556 0h-2v2h2zm0-10h2v-2h-2zm-14.194 0h-2v2h2zm0-8V6h-2v2zM8.222 8v2h2V8zm0-10v-2h-2v2zm7.556 0h2v-2h-2zm0 10v2h14.25V6h-14.25zm14.25 0h-2v8h4V8zm0 8v-2h-14.25v4h14.25zm-14.25 0h-2v10h4V16zm0 10v-2H8.222v4h7.556zm-7.556 0h2V16h-4v10zm0-10v-2H-5.972v4H8.222zm-14.194 0h2V8h-4v8zm0-8v2H8.222V6H-5.972zM8.222 8h2V-2h-4V8zm0-10v2h7.556v-4H8.222zm7.556 0h-2V8h4V-2z" mask="url(#d)"/></g></g></g><defs><filter id="a" width="26" height="26" x="0" y="0" color-interpolation-filters="sRGB" filterUnits="userSpaceOnUse"><feFlood flood-opacity="0" result="BackgroundImageFix"/><feColorMatrix in="SourceAlpha" result="hardAlpha" values="0 0 0 0 0 0 0 0 0 0 0 0 0 0 0 0 0 0 127 0"/><feOffset dx="1" dy="1"/><feGaussianBlur stdDeviation=".5"/><feComposite in2="hardAlpha" operator="out"/><feColorMatrix values="0 0 0 0 0 0 0 0 0 0 0 0 0 0 0 0 0 0 0.4 0"/><feBlend in2="BackgroundImageFix" result="effect1_dropShadow_1225_43318"/><feBlend in="SourceGraphic" in2="effect1_dropShadow_1225_43318" result="shape"/></filter></defs></svg>