<svg xmlns="http://www.w3.org/2000/svg" width="26" height="26" fill="none" viewBox="0 0 26 26"><g filter="url(#a)"><mask id="b" width="24" height="24" x="0" y="0" maskUnits="userSpaceOnUse" style="mask-type:alpha"><circle cx="12" cy="12" r="12" fill="#d9d9d9"/></mask><g mask="url(#b)"><path fill="#f7fcff" fill-rule="evenodd" d="M-4 0v24h32V0z" clip-rule="evenodd"/><mask id="c" width="32" height="24" x="-4" y="0" maskUnits="userSpaceOnUse" style="mask-type:luminance"><path fill="#fff" fill-rule="evenodd" d="M-4 0v24h32V0z" clip-rule="evenodd"/></mask><g mask="url(#c)"><path fill="#3d58db" fill-rule="evenodd" d="M12 18.22c3.203 0 5.8-2.758 5.8-6.16 0-3.4-2.597-6.158-5.8-6.158S6.201 8.66 6.201 12.061s2.596 6.158 5.8 6.158" clip-rule="evenodd"/><mask id="d" width="12" height="14" x="6" y="5" maskUnits="userSpaceOnUse" style="mask-type:luminance"><path fill="#fff" fill-rule="evenodd" d="M12 18.22c3.203 0 5.8-2.758 5.8-6.16 0-3.4-2.597-6.158-5.8-6.158S6.201 8.66 6.201 12.061s2.596 6.158 5.8 6.158" clip-rule="evenodd"/></mask><g mask="url(#d)"><path fill="#e31d1c" fill-rule="evenodd" d="M18.002 12.533s-.326-2.904-2.736-3.062-3.06 2.13-3.2 2.736c-.14.605-.491 2.222-3.03 2.222s-2.766-4.11-2.766-4.11V5.472h11.732z" clip-rule="evenodd"/></g><path fill="#272727" d="m7.225 5.575-4.1 4.917-.915-.827 4.1-4.918zM5.723 4.219 1.635 9.1.72 8.272l4.088-4.88zM4.214 2.88l-4.24 4.953-.915-.828L3.3 2.052zM20.25 8.64l1.587 1.862.915-.824-1.587-1.864zM18.996 3.83l4.419 5.38.915-.823-4.42-5.381zm4.274 2.125 1.588 1.863.915-.825-1.588-1.862zm-5.842-.743 1.587 1.862.916-.824-1.588-1.862zm3.02-2.684 1.589 1.864.915-.825-1.588-1.863zM22.41 20.228l-1.601 1.87-.923-.828 1.6-1.87zm-1.52-1.422-1.671 1.996-.923-.827 1.67-1.997zm-1.527-1.271-1.6 1.869-.923-.827 1.6-1.87zm5.606-.674-1.6 1.87-.924-.828 1.6-1.87zm-1.338-1.383-1.671 1.997-.923-.827 1.671-1.997zm-1.576-1.234-1.6 1.869-.924-.827 1.6-1.87zM-.605 17.516 3.5 22.26l.915-.826L.31 16.69zm3.964 1.467 1.726 1.896.915-.825-1.726-1.896zm-.953-4.093 4.085 4.68.915-.825-4.085-4.68zM.961 16.152l1.495 1.754.915-.825-1.495-1.754z"/></g></g></g><defs><filter id="a" width="26" height="26" x="0" y="0" color-interpolation-filters="sRGB" filterUnits="userSpaceOnUse"><feFlood flood-opacity="0" result="BackgroundImageFix"/><feColorMatrix in="SourceAlpha" result="hardAlpha" values="0 0 0 0 0 0 0 0 0 0 0 0 0 0 0 0 0 0 127 0"/><feOffset dx="1" dy="1"/><feGaussianBlur stdDeviation=".5"/><feComposite in2="hardAlpha" operator="out"/><feColorMatrix values="0 0 0 0 0 0 0 0 0 0 0 0 0 0 0 0 0 0 0.4 0"/><feBlend in2="BackgroundImageFix" result="effect1_dropShadow_1225_43117"/><feBlend in="SourceGraphic" in2="effect1_dropShadow_1225_43117" result="shape"/></filter></defs></svg>