<svg xmlns="http://www.w3.org/2000/svg" width="26" height="26" fill="none" viewBox="0 0 26 26"><g filter="url(#a)"><mask id="b" width="24" height="24" x="0" y="0" maskUnits="userSpaceOnUse" style="mask-type:alpha"><circle cx="12" cy="12" r="12" fill="#d9d9d9"/></mask><g mask="url(#b)"><path fill="#2e42a5" fill-rule="evenodd" d="M-4 0v24h32V0z" clip-rule="evenodd"/><mask id="c" width="32" height="24" x="-4" y="0" maskUnits="userSpaceOnUse" style="mask-type:luminance"><path fill="#fff" fill-rule="evenodd" d="M-4 0v24h32V0z" clip-rule="evenodd"/></mask><g clip-path="url(#d)"><path fill="#2e42a5" d="M-4 0h18v14H-4z"/><path fill="#f7fcff" d="m-6.004 13 3.96 1.737L14.09 1.889l2.09-2.582-4.237-.58-6.58 5.536-5.296 3.73z"/><path fill="#f50100" d="m-5.462 14.217 2.018 1.008L15.429-.933h-2.833z"/><path fill="#f7fcff" d="m16.004 13-3.96 1.737L-4.09 1.889-6.18-.693l4.237-.58 6.58 5.536 5.296 3.73z"/><path fill="#f50100" d="m15.87 13.873-2.019 1.008-8.036-6.918-2.383-.773L-6.38-.684h2.833L6.26 7.004l2.605.926z"/><path fill="#f50100" fill-rule="evenodd" d="M5.985 0h-2v6H-4v2h7.985v6h2V8H14V6H5.985z" clip-rule="evenodd"/><path fill="#f7fcff" fill-rule="evenodd" d="M2.485 0h5v4.5H14v5H7.485L7.5 14h-5l-.015-4.5H-4v-5h6.485zm1.5 6H-4v2h7.985v6h2V8H14V6H5.985V0h-2z" clip-rule="evenodd"/></g><path fill="#f50100" fill-rule="evenodd" d="m20.1 7.47-.26 1.514 1.36-.714 1.36.714-.26-1.514 1.1-1.072-1.52-.22L21.2 4.8l-.68 1.377-1.52.221zm-4 5.6-.26 1.515 1.36-.715 1.36.715-.26-1.515 1.1-1.072-1.52-.22-.68-1.378-.68 1.377-1.52.221zm3.327 6.393-.337 1.964 1.763-.927 1.763.927-.336-1.964 1.426-1.39-1.971-.287L20.853 16l-.882 1.786-1.971.287zm3.412-4.883.26-1.512L22 11.996l1.518-.22.68-1.376.679 1.376 1.518.22-1.099 1.072.26 1.512-1.358-.714z" clip-rule="evenodd"/><path fill="#f7fcff" d="m19.84 8.984-.197-.033-.068.4.358-.19zm.26-1.514.197.034.018-.103-.075-.074zm1.1.8.093-.177-.093-.05-.093.05zm1.36.714-.093.177.358.19-.068-.4zM22.3 7.47l-.14-.143-.075.074.018.103zm1.1-1.072.14.143.29-.282-.401-.059zm-1.52-.22-.18.088.047.094.104.015zM21.2 4.8l.18-.089-.18-.363-.18.363zm-.68 1.377.029.198.104-.015.047-.094zM19 6.398l-.029-.198-.4.059.29.282zm-3.16 8.186-.197-.033-.068.4.358-.19zm.26-1.514.197.034.018-.103-.075-.074zm1.1.8.093-.177-.093-.05-.093.05zm1.36.715-.093.176.358.19-.068-.4zm-.26-1.515-.14-.143-.075.074.018.103zm1.1-1.072.14.143.29-.282-.401-.059zm-1.52-.22-.18.088.047.094.104.015zM17.2 10.4l.18-.089-.18-.363-.18.363zm-.68 1.377.029.198.104-.015.047-.094zm-1.52.221-.029-.198-.4.059.29.282zm4.09 9.429-.197-.034-.069.4.359-.19zm.337-1.964.197.034.018-.104-.076-.073zm1.426 1.037.093-.177-.093-.05-.093.05zm1.763.927-.093.177.36.189-.07-.4zm-.336-1.964-.14-.143-.075.073.018.104zm1.426-1.39.14.143.29-.283-.4-.058zm-1.971-.287-.18.089.047.094.104.015zM20.853 16l.18-.089-.18-.363-.18.363zm-.882 1.786.03.198.103-.015.047-.094zM18 18.073l-.029-.198-.4.058.29.283zm5.099-5.005.197.033.018-.103-.076-.074zm-.26 1.512-.197-.034-.068.4.358-.19zM22 11.996l-.029-.197-.4.058.29.283zm1.518-.22.03.198.103-.015.047-.095zm.68-1.376.179-.089-.18-.363-.179.363zm.679 1.376-.18.088.047.095.104.015zm1.518.22.14.144.29-.283-.401-.058zm-1.099 1.072-.14-.144-.075.074.018.103zm.26 1.512-.093.177.358.188-.068-.399zm-1.358-.714.093-.177-.093-.05-.093.05zM19.84 8.984l.197.034.26-1.514-.197-.034-.197-.033-.26 1.514zm1.36-.714-.093-.177-1.36.714.093.177.093.177 1.36-.714zm1.36.714.093-.177-1.36-.714-.093.177-.093.177 1.36.714zM22.3 7.47l-.197.034.26 1.514.197-.034.197-.033-.26-1.514zm1.1-1.072-.14-.143-1.1 1.072.14.143.14.144 1.1-1.073zm-1.52-.22-.029.197 1.52.221.029-.198.029-.198-1.52-.22zM21.2 4.8l-.18.088.68 1.378.18-.089.18-.088-.68-1.378zm-.68 1.377.18.089.68-1.378-.18-.088-.18-.089-.68 1.378zM19 6.398l.029.198 1.52-.22-.029-.199-.029-.198-1.52.221zm1.1 1.072.14-.143-1.1-1.072-.14.143-.14.143 1.1 1.073zm-4.26 7.115.197.033.26-1.514-.197-.034-.197-.033-.26 1.514zm1.36-.715-.093-.177-1.36.714.093.178.093.176 1.36-.714zm1.36.715.093-.178-1.36-.714-.093.177-.093.177 1.36.714zm-.26-1.515-.197.034.26 1.514.197-.034.197-.033-.26-1.514zm1.1-1.072-.14-.143-1.1 1.072.14.143.14.144 1.1-1.073zm-1.52-.22-.029.197 1.52.221.029-.198.029-.198-1.52-.22zM17.2 10.4l-.18.088.68 1.378.18-.089.18-.088-.68-1.378zm-.68 1.377.18.089.68-1.378-.18-.088-.18-.089-.68 1.378zm-1.52.221.029.198 1.52-.22-.029-.199-.029-.198-1.52.221zm1.1 1.072.14-.143-1.1-1.072-.14.143-.14.143 1.1 1.073zm2.99 8.357.197.034.337-1.964-.197-.034-.197-.034-.337 1.964zm1.763-.927-.093-.177-1.763.927.093.177.093.177 1.763-.927zm1.763.927.094-.177-1.764-.927-.093.177-.093.177 1.763.927zm-.336-1.964-.197.034.336 1.964.197-.034.198-.034-.337-1.963zm1.426-1.39-.14-.143-1.426 1.39.14.143.14.144 1.426-1.391zm-1.971-.287-.029.198 1.972.287.028-.198.03-.198-1.972-.287zM20.853 16l-.18.088.883 1.787.179-.089.18-.088-.883-1.787zm-.882 1.786.18.089.881-1.787-.179-.088-.18-.089-.88 1.787zM18 18.073l.029.198L20 17.984l-.029-.198-.028-.198-1.972.287zm1.427 1.39.14-.143-1.427-1.39-.14.143-.14.143 1.427 1.39zm3.672-6.395-.197-.034-.26 1.512.197.034.198.034.259-1.513zM22 11.996l-.14.144 1.1 1.07.139-.143.14-.143-1.1-1.07zm1.518-.22-.028-.198-1.519.22.029.198.029.198 1.518-.22zm.68-1.376-.18-.089-.679 1.376.18.089.179.088.679-1.376zm.679 1.376.179-.089-.68-1.376-.178.089-.18.088.68 1.376zm1.518.22.029-.197-1.519-.221-.028.198-.03.198 1.52.22zm-1.099 1.072.14.143 1.099-1.071-.14-.144-.14-.143-1.098 1.071zm.26 1.512.197-.034-.26-1.512-.197.034-.197.033.26 1.513zm-1.358-.714-.093.177 1.358.714.093-.177.093-.177-1.358-.714zm-1.359.714.094.177 1.358-.714-.093-.177-.093-.177-1.359.714z"/></g></g><defs><clipPath id="d"><path fill="#fff" d="M-4 0h18v14H-4z"/></clipPath><filter id="a" width="26" height="26" x="0" y="0" color-interpolation-filters="sRGB" filterUnits="userSpaceOnUse"><feFlood flood-opacity="0" result="BackgroundImageFix"/><feColorMatrix in="SourceAlpha" result="hardAlpha" values="0 0 0 0 0 0 0 0 0 0 0 0 0 0 0 0 0 0 127 0"/><feOffset dx="1" dy="1"/><feGaussianBlur stdDeviation=".5"/><feComposite in2="hardAlpha" operator="out"/><feColorMatrix values="0 0 0 0 0 0 0 0 0 0 0 0 0 0 0 0 0 0 0.4 0"/><feBlend in2="BackgroundImageFix" result="effect1_dropShadow_1225_43319"/><feBlend in="SourceGraphic" in2="effect1_dropShadow_1225_43319" result="shape"/></filter></defs></svg>