<svg xmlns="http://www.w3.org/2000/svg" width="26" height="26" fill="none" viewBox="0 0 26 26"><g filter="url(#a)"><mask id="b" width="24" height="24" x="0" y="0" maskUnits="userSpaceOnUse" style="mask-type:alpha"><circle cx="12" cy="12" r="12" fill="#d9d9d9"/></mask><g mask="url(#b)"><path fill="#f7fcff" fill-rule="evenodd" d="M-4 0h32v24H-4z" clip-rule="evenodd"/><path fill="#e31d1c" fill-rule="evenodd" d="M-4 14.667v2h32v-2zM-4 18.333v2h32v-2zM-4 7.333v2h32v-2zM-4 22v2h32v-2zM-4 11v2h32v-2zM-4 0v2h32V0zM-4 3.667v2h32v-2z" clip-rule="evenodd"/><path fill="#2e42a5" d="M-4 0h20v13H-4z"/><path fill="#f7fcff" d="M-1.947 9.968h.717l-.564.573.219.907-.703-.51-.726.51.245-.907-.644-.573h.841l.284-.739zM2.053 9.968h.717l-.564.573.219.907-.703-.51-.726.51.245-.907-.644-.573h.841l.284-.739zM6.053 9.968h.717l-.564.573.219.907-.703-.51-.726.51.245-.907-.644-.573h.841l.284-.739zM10.053 9.968h.717l-.564.573.219.907-.703-.51-.726.51.245-.907-.644-.573h.841l.284-.739zM14.053 9.968h.717l-.564.573.219.907-.703-.51-.726.51.245-.907-.644-.573h.841l.284-.739zM.053 7.968H.77l-.564.573.219.907-.703-.51-.726.51.245-.907-.644-.573h.841l.284-.739zM4.053 7.968h.717l-.564.573.219.907-.703-.51-.726.51.245-.907-.644-.573h.841l.284-.739zM8.053 7.968h.717l-.564.573.219.907-.703-.51-.726.51.245-.907-.644-.573h.841l.284-.739zM12.053 7.968h.717l-.564.573.219.907-.703-.51-.726.51.245-.907-.644-.573h.841l.284-.739zM-1.947 5.968h.717l-.564.573.219.907-.703-.51-.726.51.245-.907-.644-.573h.841l.284-.739zM2.053 5.968h.717l-.564.573.219.907-.703-.51-.726.51.245-.907-.644-.573h.841l.284-.739zM6.053 5.968h.717l-.564.573.219.907-.703-.51-.726.51.245-.907-.644-.573h.841l.284-.739zM10.053 5.968h.717l-.564.573.219.907-.703-.51-.726.51.245-.907-.644-.573h.841l.284-.739zM14.053 5.968h.717l-.564.573.219.907-.703-.51-.726.51.245-.907-.644-.573h.841l.284-.739zM.053 3.968H.77l-.564.573.219.907-.703-.51-.726.51.245-.907-.644-.573h.841l.284-.739zM4.053 3.968h.717l-.564.573.219.907-.703-.51-.726.51.245-.907-.644-.573h.841l.284-.739zM8.053 3.968h.717l-.564.573.219.907-.703-.51-.726.51.245-.907-.644-.573h.841l.284-.739zM12.053 3.968h.717l-.564.573.219.907-.703-.51-.726.51.245-.907-.644-.573h.841l.284-.739zM-1.947 1.968h.717l-.564.573.219.907-.703-.51-.726.51.245-.907-.644-.573h.841l.284-.739zM2.053 1.968h.717l-.564.573.219.907-.703-.51-.726.51.245-.907-.644-.573h.841l.284-.739zM6.053 1.968h.717l-.564.573.219.907-.703-.51-.726.51.245-.907-.644-.573h.841l.284-.739zM10.053 1.968h.717l-.564.573.219.907-.703-.51-.726.51.245-.907-.644-.573h.841l.284-.739zM14.053 1.968h.717l-.564.573.219.907-.703-.51-.726.51.245-.907-.644-.573h.841l.284-.739z"/></g></g><defs><filter id="a" width="26" height="26" x="0" y="0" color-interpolation-filters="sRGB" filterUnits="userSpaceOnUse"><feFlood flood-opacity="0" result="BackgroundImageFix"/><feColorMatrix in="SourceAlpha" result="hardAlpha" values="0 0 0 0 0 0 0 0 0 0 0 0 0 0 0 0 0 0 127 0"/><feOffset dx="1" dy="1"/><feGaussianBlur stdDeviation=".5"/><feComposite in2="hardAlpha" operator="out"/><feColorMatrix values="0 0 0 0 0 0 0 0 0 0 0 0 0 0 0 0 0 0 0.4 0"/><feBlend in2="BackgroundImageFix" result="effect1_dropShadow_1225_42826"/><feBlend in="SourceGraphic" in2="effect1_dropShadow_1225_42826" result="shape"/></filter></defs></svg>