<svg xmlns="http://www.w3.org/2000/svg" width="26" height="26" fill="none" viewBox="0 0 26 26"><g filter="url(#a)"><mask id="b" width="24" height="24" x="0" y="0" maskUnits="userSpaceOnUse" style="mask-type:alpha"><circle cx="12" cy="12" r="12" fill="#d9d9d9"/></mask><g mask="url(#b)"><path fill="#ea1a1a" fill-rule="evenodd" d="M-4 0v24h32V0z" clip-rule="evenodd"/><mask id="c" width="32" height="24" x="-4" y="0" maskUnits="userSpaceOnUse" style="mask-type:luminance"><path fill="#fff" fill-rule="evenodd" d="M-4 0v24h32V0z" clip-rule="evenodd"/></mask><g mask="url(#c)"><path fill="#fff" d="M14.239 11.827c.059.018 7.411 2.248 2.447 7.877-.015-.006-2.758-1.165-2.447-4.05.312-2.892.89-3.515 0-3.827m-1.954 1.735s1.332 7.642-5.951 5.71c-.003-.041-.179-2.991 2.528-3.999 2.727-1.014 3.542-.776 3.423-1.711m-8.96-5.694s2.882-.806 4.434 1.654c1.551 2.461 1.485 3.309 2.375 3-.021.009-7.206 2.86-6.81-4.654m9.95 3.251s3.649-6.846 8.204-.844c0 0-1.68 2.476-4.453 1.6-2.774-.877-3.27-1.567-3.752-.756m-.286-7.716s2.01 2.217.502 4.705-2.296 2.808-1.621 3.467c0 0-5.79-5.163 1.119-8.172"/><path fill="#ea1a1a" d="m5.95 10.342.422-.268c.927 1.458 2.129 2.175 3.63 2.175v.5c-1.68 0-3.037-.81-4.052-2.407"/><path fill="#ea1a1a" fill-rule="evenodd" d="M17.75 10.75a.75.75 0 1 0 0-1.5.75.75 0 0 0 0 1.5M15.959 15.728a.75.75 0 1 0 0-1.5.75.75 0 0 0 0 1.5M9.959 17.728a.75.75 0 1 0 0-1.5.75.75 0 0 0 0 1.5M5.959 10.728a.75.75 0 1 0 0-1.5.75.75 0 0 0 0 1.5M11.959 7.728a.75.75 0 1 0 0-1.5.75.75 0 0 0 0 1.5" clip-rule="evenodd"/><path fill="#ea1a1a" d="m11.635 7.053.44.238c-.833 1.536-.892 2.952-.187 4.279l-.442.234c-.787-1.48-.72-3.074.188-4.751M18.015 9.686l-.075.494c-1.956-.296-3.42.117-4.422 1.23l-.372-.335c1.125-1.249 2.758-1.709 4.869-1.389"/><path fill="#ea1a1a" d="m16.351 15.365-.49.099c-.39-1.94-1.279-3.174-2.668-3.735l.188-.464c1.558.63 2.549 2.007 2.97 4.1M9.906 17.15l-.26-.427c1.689-1.03 2.545-2.287 2.597-3.784l.5.018c-.059 1.68-1.014 3.081-2.837 4.193"/></g></g></g><defs><filter id="a" width="26" height="26" x="0" y="0" color-interpolation-filters="sRGB" filterUnits="userSpaceOnUse"><feFlood flood-opacity="0" result="BackgroundImageFix"/><feColorMatrix in="SourceAlpha" result="hardAlpha" values="0 0 0 0 0 0 0 0 0 0 0 0 0 0 0 0 0 0 127 0"/><feOffset dx="1" dy="1"/><feGaussianBlur stdDeviation=".5"/><feComposite in2="hardAlpha" operator="out"/><feColorMatrix values="0 0 0 0 0 0 0 0 0 0 0 0 0 0 0 0 0 0 0.4 0"/><feBlend in2="BackgroundImageFix" result="effect1_dropShadow_1225_43465"/><feBlend in="SourceGraphic" in2="effect1_dropShadow_1225_43465" result="shape"/></filter></defs></svg>