<svg xmlns="http://www.w3.org/2000/svg" width="26" height="26" fill="none" viewBox="0 0 26 26"><g filter="url(#a)"><mask id="b" width="24" height="24" x="0" y="0" maskUnits="userSpaceOnUse" style="mask-type:alpha"><circle cx="12" cy="12" r="12" fill="#d9d9d9"/></mask><g fill-rule="evenodd" clip-rule="evenodd" mask="url(#b)"><path fill="#f7fcff" d="M4 0h16v24H4z"/><path fill="#e31d1c" d="M11.976 7 12 19h-.6l.368-2.97q-4.035.726-3.701.36.333-.366.525-1.038L5 12.955q.566-.006 1.028-.281.46-.274-.461-1.9l1.813.264.687-.746 1.368 1.432h.615l-.615-3.28 1.103.615zm0 0 1.486 2.06 1.103-.617-.615 3.281h.615l1.368-1.432.686.746 1.814-.264q-.922 1.626-.46 1.9.461.275 1.027.281l-3.592 2.397q.192.672.525 1.038.334.366-3.701-.36L12.6 19H12zM20 0h8v24h-8zM-4 0h8v24h-8z"/></g></g><defs><filter id="a" width="26" height="26" x="0" y="0" color-interpolation-filters="sRGB" filterUnits="userSpaceOnUse"><feFlood flood-opacity="0" result="BackgroundImageFix"/><feColorMatrix in="SourceAlpha" result="hardAlpha" values="0 0 0 0 0 0 0 0 0 0 0 0 0 0 0 0 0 0 127 0"/><feOffset dx="1" dy="1"/><feGaussianBlur stdDeviation=".5"/><feComposite in2="hardAlpha" operator="out"/><feColorMatrix values="0 0 0 0 0 0 0 0 0 0 0 0 0 0 0 0 0 0 0.4 0"/><feBlend in2="BackgroundImageFix" result="effect1_dropShadow_1225_42960"/><feBlend in="SourceGraphic" in2="effect1_dropShadow_1225_42960" result="shape"/></filter></defs></svg>