<svg xmlns="http://www.w3.org/2000/svg" width="26" height="26" fill="none" viewBox="0 0 26 26"><g filter="url(#a)"><mask id="b" width="24" height="24" x="0" y="0" maskUnits="userSpaceOnUse" style="mask-type:alpha"><circle cx="12" cy="12" r="12" fill="#d9d9d9"/></mask><g mask="url(#b)"><path fill="#f7fcff" fill-rule="evenodd" d="M-2 0v24h32V0z" clip-rule="evenodd"/><mask id="c" width="32" height="24" x="-2" y="0" maskUnits="userSpaceOnUse" style="mask-type:luminance"><path fill="#fff" fill-rule="evenodd" d="M-2 0v24h32V0z" clip-rule="evenodd"/></mask><g mask="url(#c)"><path fill="#e31d1c" fill-rule="evenodd" d="M-2 0v12h32V0z" clip-rule="evenodd"/><path fill="#f1f9ff" d="M1.851 6.374c0-4.215 3.644-4.527 5.018-4.179 0 0-2.826 1.1-2.827 4.179S6.87 10.59 6.87 10.59c-1.429.795-5.018 0-5.018-4.216M8.79 8.373h.913l-.674.753.203.955-.83-.49-.81.49.186-.955-.676-.715.914-.038.387-.892zm2.946-.055h.913l-.674.753.203.955-.829-.49-.81.49.185-.955-.676-.715.914-.038.387-.891zm-3.98-2.314h.913l-.673.754.203.955-.83-.49-.81.49.186-.955-.676-.715.914-.04.387-.89zm5.359-.044h.913l-.674.754.203.955-.829-.49-.81.49.185-.955-.676-.715.914-.04.387-.89zm-2.63-1.899h.912l-.674.754.203.955-.828-.489-.81.49.184-.956-.675-.715.914-.039.387-.891z"/></g></g></g><defs><filter id="a" width="26" height="26" x="0" y="0" color-interpolation-filters="sRGB" filterUnits="userSpaceOnUse"><feFlood flood-opacity="0" result="BackgroundImageFix"/><feColorMatrix in="SourceAlpha" result="hardAlpha" values="0 0 0 0 0 0 0 0 0 0 0 0 0 0 0 0 0 0 127 0"/><feOffset dx="1" dy="1"/><feGaussianBlur stdDeviation=".5"/><feComposite in2="hardAlpha" operator="out"/><feColorMatrix values="0 0 0 0 0 0 0 0 0 0 0 0 0 0 0 0 0 0 0.4 0"/><feBlend in2="BackgroundImageFix" result="effect1_dropShadow_1225_43382"/><feBlend in="SourceGraphic" in2="effect1_dropShadow_1225_43382" result="shape"/></filter></defs></svg>