<svg xmlns="http://www.w3.org/2000/svg" width="26" height="26" fill="none" viewBox="0 0 26 26"><g filter="url(#a)"><mask id="b" width="24" height="24" x="0" y="0" maskUnits="userSpaceOnUse" style="mask-type:alpha"><circle cx="12" cy="12" r="12" fill="#d9d9d9"/></mask><g mask="url(#b)"><path fill="#003fab" d="M-4 0h32v24H-4z"/><path fill="#ffc400" d="m7.934 18.891.197-.885-.78-.461.902-.085.196-.885.36.83.902-.084-.678.597.36.83-.78-.457zM5.034 15.934l.61-.668-.443-.787.824.376.613-.668-.105.9.824.376-.888.18-.102.901-.444-.79zM4 11.925l.865-.274.007-.906.525.74.865-.272-.54.726.526.74-.858-.289-.539.73.007-.906zM5.109 7.934l.885.197.461-.78.085.902.885.196-.83.36.084.902-.6-.678-.831.36.461-.78zM8.066 5.034l.668.61.787-.443-.376.824.668.613-.9-.105-.375.824-.18-.888-.902-.102.79-.444zM12.075 4l.274.865.906.007-.74.525.272.865-.726-.54-.74.526.289-.858-.73-.539.906.007zM16.066 5.109l-.197.885.78.461-.902.085-.196.885-.36-.83-.902.084.678-.6-.36-.831.78.461zM18.966 8.066l-.61.668.443.787-.824-.376-.613.668.105-.9-.824-.375.888-.18.102-.902.444.79zM20 12.075l-.865.274-.007.906-.525-.74-.865.272.54-.726-.526-.74.858.289.539-.73-.007.906zM18.891 16.066l-.885-.197-.461.78-.085-.902-.885-.196.83-.36-.084-.902.6.678.831-.36-.461.78zM15.934 18.966l-.668-.61-.787.443.376-.824-.668-.613.9.105.376-.824.18.888.901.102-.79.444zM11.925 20l-.274-.865-.906-.007.74-.525-.272-.865.726.54.74-.526-.289.858.73.539-.91-.007z"/></g></g><defs><filter id="a" width="26" height="26" x="0" y="0" color-interpolation-filters="sRGB" filterUnits="userSpaceOnUse"><feFlood flood-opacity="0" result="BackgroundImageFix"/><feColorMatrix in="SourceAlpha" result="hardAlpha" values="0 0 0 0 0 0 0 0 0 0 0 0 0 0 0 0 0 0 127 0"/><feOffset dx="1" dy="1"/><feGaussianBlur stdDeviation=".5"/><feComposite in2="hardAlpha" operator="out"/><feColorMatrix values="0 0 0 0 0 0 0 0 0 0 0 0 0 0 0 0 0 0 0.4 0"/><feBlend in2="BackgroundImageFix" result="effect1_dropShadow_1225_43563"/><feBlend in="SourceGraphic" in2="effect1_dropShadow_1225_43563" result="shape"/></filter></defs></svg>