<svg xmlns="http://www.w3.org/2000/svg" width="26" height="26" fill="none" viewBox="0 0 26 26"><g filter="url(#a)"><mask id="b" width="24" height="24" x="0" y="0" maskUnits="userSpaceOnUse" style="mask-type:alpha"><circle cx="12" cy="12" r="12" fill="#d9d9d9"/></mask><g mask="url(#b)"><path fill="#d9071e" fill-rule="evenodd" d="M18 0h10v24H18z" clip-rule="evenodd"/><path fill="#006923" fill-rule="evenodd" d="M-4 0H8v24H-4z" clip-rule="evenodd"/><path fill="#fff" fill-rule="evenodd" d="M6 0h12v24H6z" clip-rule="evenodd"/><path fill="#a8ac71" d="M10.016 7.947a6 6 0 0 0-.22.395c.18.053.305.307.44.433.365.336.32.71-.18 1.116-.097.079.126.286.04.543.238.013.408.05.566.143.442.261.4.738.064 1.106-.239.261-.557.473-.857.581-.5.18-1.034.11-1.034-.528 0-.025-.016-.075.22-.08-.38-.006-.536-1.05-.542-1.17 0-.794-.336-.794-.336-.794v-.427h.58c.33 0 .238.396.342.626.025-.042.067 1.313.202 1.2.052-.041.436.443.495.23.045-.159-.215-.788-.214-1.056 0-.621.195-.974.214-1-.083-.03-.207-.359-.263-.36-.514 0-.584-.108-.478-.563.057-.243-.137-.509.104-.91zm-.044 3.078.01-.01.006-.007z"/><path fill="#fcca3d" fill-rule="evenodd" d="M10.384 7.914s-.687.532-.558 1.1c.128.568 1.482 0 1.318-.55s-.76-.55-.76-.55" clip-rule="evenodd"/><path fill="#8f4620" fill-rule="evenodd" d="M15.267 12.403s.925-2.741-.546-4.16c-1.47-1.42-3.17-1.324-3.17-1.324s-.489.363 0 .64c.49.278.285.543.285.543s-.82-.832-1.363-.345c-.544.486.507.412.396.778s-.583 1.99.106 2.811c.69.82-.651.643-.379.643.273 0 1.24.19 1.24 0 0-.191.336.742.624.742.287 0 .51-.328.51-.328s.403.328.649.328c.245 0 1.102-.215 1.102-.215l-1.62-1.364s.098-.602-.131-.732c-.23-.13 1.841 1.154 2.004 1.569.162.414.293.414.293.414" clip-rule="evenodd"/><path fill="#9fab2f" d="M7.066 11.727s.15-.479.311-.512c.14-.029.432.23.432.23.52 2.889 1.779 4.018 3.866 4.018 2.112 0 3.392-.858 4.138-3.523 0 0 .398-.406.538-.36.152.048.343.585.343.585-.856 3.058-2.475 4.419-5.02 4.419-2.567 0-4.01-1.54-4.608-4.857"/><path fill="#2fc2dc" fill-rule="evenodd" d="M9.334 13.657s3.005.637 4.19.637-1.04.968-1.909.968q-.57 0-1.374-.691c-.096-.083-.003-.268-.296-.27-.408-.004-.915-.1-.866-.158.046-.055.64-.072.583-.133-.095-.1-.328-.353-.328-.353" clip-rule="evenodd"/><rect width="2" height="1.071" x="10.666" y="14.1" fill="#f9aa51" rx=".167"/><path fill="#259485" d="M8.175 12.136s0-.375.254-.574c.291-.229.565 0 .565 0 1.065 1.518 2.659 2.018 4.887 1.496 0 0 .666.218.7.361.042.182-.472.613-.472.613-2.605.61-4.619-.022-5.934-1.896"/><path fill="#fcca3d" fill-rule="evenodd" d="M12.591 12.35s-1.213.64-.809.64c.405 0 1.988.319 1.68 0-.308-.32-.87-.64-.87-.64M11.157 11.588s-.231-.666-.711-.666-.344.547-.575.547.215.384.414.384.871-.265.871-.265" clip-rule="evenodd"/></g></g><defs><filter id="a" width="26" height="26" x="0" y="0" color-interpolation-filters="sRGB" filterUnits="userSpaceOnUse"><feFlood flood-opacity="0" result="BackgroundImageFix"/><feColorMatrix in="SourceAlpha" result="hardAlpha" values="0 0 0 0 0 0 0 0 0 0 0 0 0 0 0 0 0 0 127 0"/><feOffset dx="1" dy="1"/><feGaussianBlur stdDeviation=".5"/><feComposite in2="hardAlpha" operator="out"/><feColorMatrix values="0 0 0 0 0 0 0 0 0 0 0 0 0 0 0 0 0 0 0.4 0"/><feBlend in2="BackgroundImageFix" result="effect1_dropShadow_1225_43529"/><feBlend in="SourceGraphic" in2="effect1_dropShadow_1225_43529" result="shape"/></filter></defs></svg>